<?xml version="1.0" encoding="iso-8859-1"?>

<!DOCTYPE svg PUBLIC "-//W3C//DTD SVG 1.1//EN" "http://www.w3.org/Graphics/SVG/1.1/DTD/svg11.dtd">
<!-- Uploaded to: SVG Repo, www.svgrepo.com, Generator: SVG Repo Mixer Tools -->
<svg version="1.1" id="_x36_" xmlns="http://www.w3.org/2000/svg" xmlns:xlink="http://www.w3.org/1999/xlink" 
	 viewBox="0 0 512 512"  xml:space="preserve">
<g>
	<g>
		<g>
			<path style="fill:#4F5458;" d="M508.224,20.585v329.82c0,11.284-9.225,20.585-20.509,20.585H20.509
				C9.225,370.99,0,361.689,0,350.405V20.585C0,9.301,9.225,0,20.509,0h467.206C498.999,0,508.224,9.301,508.224,20.585z"/>
			<rect x="24.035" y="24.102" style="fill:#FFFFFF;" width="460.154" height="322.81"/>
			<g>
				<path style="fill:#CB6F8B;" d="M391.575,127.857H116.649c-17.383,0-31.564,14.181-31.564,31.563v187.477h30.039V159.42
					c0-0.839,0.686-1.524,1.525-1.524h274.926c0.839,0,1.525,0.686,1.525,1.524v187.477h30.039V159.42
					C423.139,142.038,408.958,127.857,391.575,127.857z"/>
			</g>
			<g>
				<g>
					<path style="fill:#C4C4C4;" d="M118.09,385.243c-20.1-55.715-37.652-97.911-45.795-114.407l-2.451-8.902l-0.945-3.459
						l3.778-1.639l7.437-3.233h0.012l1.602-0.707l1.949,7.098c0,0,0,0,0,0.015L118.09,385.243z"/>
				</g>
				<g>
					<polygon style="fill:#C4C4C4;" points="199.731,497.91 199.731,497.925 195.867,512 189.22,512 174.378,457.939 
						167.19,431.789 167.19,431.759 149.039,365.668 149.039,365.653 141.851,339.502 119.595,258.479 132.423,252.9 
						149.039,313.367 149.039,313.382 156.227,339.502 156.227,339.532 174.378,405.623 174.378,405.638 181.566,431.789 
						181.566,431.804 					"/>
				</g>
				<g>
					<polygon style="fill:#C4C4C4;" points="250.423,497.91 246.559,512 239.927,512 225.085,457.939 217.897,431.789 
						199.731,365.668 192.543,339.517 192.543,339.502 174.378,273.397 174.378,273.382 170.288,258.479 174.378,256.705 
						183.13,252.9 199.731,313.352 199.731,313.367 206.919,339.502 206.919,339.517 225.085,405.638 232.273,431.789 
						232.273,431.804 					"/>
				</g>
				<g>
					<polygon style="fill:#C4C4C4;" points="301.116,497.91 297.251,512 290.619,512 275.777,457.954 268.589,431.789 
						250.423,365.683 250.423,365.668 243.235,339.517 225.085,273.412 225.085,273.382 220.98,258.479 225.07,256.705 
						225.085,256.705 233.822,252.9 250.423,313.352 257.611,339.502 257.611,339.517 275.762,405.623 282.965,431.789 					"/>
				</g>
				<g>
					<path style="fill:#C4C4C4;" d="M351.808,497.88c-1.399,4.662-2.782,9.383-4.135,14.12h-6.361l-4.316-15.714l-10.526-38.346
						l-7.188-26.136v-0.015l-18.165-66.106v-0.015l-7.188-26.151v-0.015l-18.15-66.091v-0.03l-4.105-14.902l4.09-1.774h0.015
						l8.722-3.804l16.617,60.467l7.188,26.166l18.166,66.106l7.173,26.151l10.902,39.624L351.808,497.88z"/>
				</g>
				<g>
					<path style="fill:#C4C4C4;" d="M379.217,413.153c-0.765,2.196-1.519,4.406-2.284,6.632c-1.794,5.218-3.683,10.812-5.656,16.722
						l-6.983-25.429l-12.483-45.414l-7.186-26.166l-22.252-81.023l12.83-5.579l16.608,60.467l7.186,26.151l13.332,48.557
						L379.217,413.153z"/>
				</g>
				<g>
					<polygon style="fill:#C4C4C4;" points="381.267,258.479 358.996,339.517 351.808,365.668 333.642,431.789 326.469,457.939 
						311.627,512 304.98,512 301.116,497.91 319.281,431.804 319.281,431.789 326.469,405.638 344.635,339.547 344.635,339.532 
						351.808,313.382 351.808,313.367 368.424,252.9 					"/>
				</g>
				<g>
					<polygon style="fill:#C4C4C4;" points="330.559,258.479 326.469,273.382 308.304,339.532 301.116,365.668 301.116,365.683 
						282.965,431.789 275.777,457.954 260.935,512 254.288,512 250.423,497.91 268.589,431.789 275.762,405.623 293.928,339.517 
						293.928,339.502 301.116,313.367 317.717,252.9 326.469,256.705 					"/>
				</g>
				<g>
					<polygon style="fill:#C4C4C4;" points="279.867,258.479 275.777,273.382 275.777,273.412 257.611,339.502 257.611,339.517 
						250.423,365.668 250.423,365.683 232.273,431.789 232.273,431.804 225.085,457.939 210.243,512 203.596,512 199.731,497.925 
						199.731,497.91 217.897,431.789 225.085,405.638 243.235,339.517 250.423,313.352 267.04,252.9 275.762,256.705 
						275.777,256.705 					"/>
				</g>
				<g>
					<path style="fill:#C4C4C4;" d="M229.17,258.475l-4.089,14.902v0.015l-18.163,66.106v0.015l-7.186,26.151l-18.162,66.121v0.015
						l-7.186,26.135l-7.437,27.083l-7.341,26.722c-2.463-8.451-4.974-16.812-7.497-25.008l7.198-26.211l7.892-28.737v-0.015
						l7.186-26.135l18.163-66.121l7.186-26.151l16.608-60.467l8.729,3.805h0.012L229.17,258.475z"/>
				</g>
				<g>
					<path style="fill:#C4C4C4;" d="M178.472,258.475l-4.089,14.902v0.015l-18.162,66.106v0.015l-7.186,26.135l-9.685,35.248
						l-6.935,25.233c-0.382-1.128-0.765-2.241-1.136-3.338c-2.308-6.737-4.603-13.339-6.863-19.79l6.827-24.872l10.606-38.632
						l7.186-26.136l16.608-60.467l8.729,3.805h0.012L178.472,258.475z"/>
				</g>
				<g>
					<path style="fill:#C4C4C4;" d="M174.904,512h-15.218c-0.03-0.075-0.045-0.165-0.075-0.241v-0.015
						c-2.466-8.451-4.978-16.812-7.504-25.008c-6.902-22.406-13.82-43.384-19.699-60.602c-0.376-1.128-0.752-2.241-1.128-3.339
						c-2.316-6.737-4.601-13.338-6.872-19.79c-2.12-6.03-4.226-11.925-6.301-17.669c0-0.03-0.015-0.06-0.015-0.09
						c-20.105-55.715-37.654-97.911-45.79-114.407c-1.834-3.714-3.188-6.12-3.985-7.098c0.12,0.151,0.24,0.256,0.331,0.346
						l1.203-2.15l2.827-5.098l4.196-7.549c0.887,0.782,1.97,2.241,3.248,4.316c1.068,1.729,2.256,3.865,3.549,6.391c0,0,0,0,0,0.015
						c11.324,21.955,30.948,72.166,47.579,118.121c2.797,7.76,5.534,15.414,8.105,22.767c1.368,3.895,2.692,7.699,3.97,11.414
						c4.767,13.865,10.286,30.346,15.985,48.211c2.527,7.925,5.083,16.12,7.639,24.496C169.641,493.88,172.318,502.902,174.904,512z
						"/>
				</g>
				<g>
					<path style="fill:#C4C4C4;" d="M439.914,260.735c-5.008,6.06-31.549,68.076-60.692,152.422
						c-0.767,2.195-1.519,4.406-2.286,6.632c-1.79,5.218-3.684,10.812-5.654,16.722c-6.09,18.211-12.902,39.354-19.474,61.369
						c-1.399,4.662-2.782,9.383-4.135,14.12h-15.203c1.474-5.263,2.992-10.511,4.526-15.714c2.481-8.436,5.008-16.752,7.549-24.872
						c6.962-22.421,13.895-43.264,19.744-60.331c0.211-0.602,0.406-1.188,0.617-1.775c2.331-6.797,4.827-13.91,7.428-21.233
						c21.489-60.452,50.376-134.182,59.008-141.791l8.226,14.797C439.673,260.99,439.793,260.885,439.914,260.735z"/>
				</g>
			</g>
			<path style="fill:#4F5458;" d="M418.767,286.759H89.457c-17.368,0-31.578-14.21-31.578-31.578l0,0
				c0-17.368,14.21-31.578,31.578-31.578h329.31c17.368,0,31.578,14.21,31.578,31.578l0,0
				C450.344,272.549,436.134,286.759,418.767,286.759z"/>
		</g>
		<path style="opacity:0.1;fill:#FFFFFF;" d="M451.615,254.951c0,1.906-0.153,3.888-0.61,5.718
			c-2.592-14.714-15.553-25.922-30.954-25.922H90.765c-8.692,0-16.621,3.584-22.339,9.302c-4.422,4.422-7.548,10.216-8.692,16.62
			c-0.457-1.83-0.61-3.812-0.61-5.718c0-8.692,3.583-16.62,9.301-22.339c5.718-5.718,13.647-9.302,22.339-9.302h329.286
			C437.434,223.31,451.615,237.568,451.615,254.951z"/>
	</g>
	<polygon style="fill:none;" points="215.561,370.972 225.085,405.638 234.601,370.972 	"/>
	<path style="fill:none;" d="M131.244,378.121l1.963-7.149h-4.564C129.516,373.362,130.386,375.75,131.244,378.121z"/>
	<polygon style="fill:none;" points="254.112,379.105 251.877,370.972 248.971,370.972 232.273,431.789 232.273,431.803 
		250.423,497.91 254.112,484.485 	"/>
	<polygon style="fill:none;" points="198.273,370.972 181.569,431.784 181.569,431.799 181.567,431.807 199.731,497.91 
		217.897,431.789 201.188,370.972 	"/>
	<polygon style="fill:none;" points="268.589,431.789 254.112,379.105 254.112,484.485 	"/>
	<path style="fill:none;" d="M167.19,431.759l-16.694-60.787h-2.924l-8.221,29.919l0.004,0.011c1.369,3.895,2.692,7.699,3.97,11.414
		c4.766,13.862,10.283,30.339,15.982,48.201l7.886-28.717l-0.003-0.011V431.759z"/>
	<polygon style="fill:none;" points="164.861,370.972 174.378,405.623 174.378,405.638 174.38,405.645 174.383,405.634 
		183.904,370.972 	"/>
	<path style="fill:none;" d="M372.33,388.069l0.003,0.01c0.001-0.002,0.001-0.004,0.001-0.004
		c1.992-5.604,4.061-11.337,6.157-17.104h-10.855L372.33,388.069z"/>
	<polygon style="fill:none;" points="319.281,431.789 302.569,370.972 299.663,370.972 282.965,431.789 301.116,497.91 
		319.281,431.803 	"/>
	<path style="fill:none;" d="M350.351,370.972l-16.708,60.817l10.902,39.625c6.962-22.421,13.895-43.264,19.744-60.331
		c0.001-0.004,0.003-0.007,0.004-0.012l-11.022-40.098H350.351z"/>
	<polygon style="fill:none;" points="316.943,370.972 326.469,405.638 335.997,370.972 	"/>
	<polygon style="fill:none;" points="275.762,405.623 285.284,370.972 266.248,370.972 	"/>
	<path style="opacity:0.07;fill:#040000;" d="M487.693,0.036H254.112v379.069l14.477,52.683l-14.477,52.696v26.872l0.176,0.643
		h6.647l14.842-54.046L290.62,512h6.632l3.865-14.09l-18.151-66.121l16.698-60.817h2.905l16.712,60.817v0.015l-18.165,66.106
		L304.98,512h6.647l14.842-54.06l10.527,38.346c-1.534,5.203-3.053,10.451-4.526,15.714h8.842h6.361
		c1.353-4.737,2.737-9.458,4.135-14.12c6.572-22.015,13.384-43.158,19.474-61.369c1.97-5.91,3.865-11.504,5.654-16.722
		c0.767-2.225,1.519-4.436,2.286-6.632c5.124-14.829,10.157-28.919,15.017-42.185h93.454c11.309,0,20.556-9.249,20.556-20.557
		V20.593C508.249,9.284,499.001,0.036,487.693,0.036z M275.762,405.623l-9.514-34.651h19.036L275.762,405.623z M316.943,370.972
		h19.054l-9.528,34.666L316.943,370.972z M364.289,411.082c-5.849,17.068-12.782,37.91-19.744,60.331l-10.902-39.625l16.708-60.817
		h2.92l11.022,40.098C364.292,411.074,364.29,411.078,364.289,411.082z M372.335,388.074c0,0-0.001,0.004-0.002,0.006l-0.003-0.01
		l-4.694-17.098h10.855C376.395,376.739,374.326,382.472,372.335,388.074z"/>
</g>
</svg>