<?xml version="1.0" encoding="utf-8"?>
<!-- Uploaded to: SVG Repo, www.svgrepo.com, Generator: SVG Repo Mixer Tools -->
<svg width="800px" height="800px" viewBox="0 0 1024 1024" class="icon"  version="1.1" xmlns="http://www.w3.org/2000/svg"><path d="M792.208548 498.093472c38.075115 0 68.989167 30.882083 68.989167 68.989167s-30.914052 68.989167-68.989167 68.989166c-38.107084 0-69.021136-30.882083-69.021136-68.989166s30.914052-68.989167 69.021136-68.989167z" fill="#5FCEFF" /><path d="M512.479535 95.283694c231.455777 0 419.050045 187.626237 419.050046 419.018076 0 231.423808-187.594268 419.050045-419.050046 419.050045-231.391839 0-419.050045-187.626237-419.050045-419.050045 0-231.391839 187.658206-419.018076 419.050045-419.018076z m348.71818 471.798945c0-38.107084-30.914052-68.989167-68.989167-68.989167-38.107084 0-69.021136 30.882083-69.021136 68.989167s30.914052 68.989167 69.021136 68.989166c38.075115 0 68.989167-30.882083 68.989167-68.989166z m-95.90709 163.042053c0-38.107084-30.914052-68.989167-68.989167-68.989167-38.107084 0-69.021136 30.882083-69.021136 68.989167s30.914052 68.989167 69.021136 68.989166c38.075115 0 68.989167-30.882083 68.989167-68.989166z m-95.90709-163.042053c0-38.107084-30.914052-68.989167-68.989167-68.989167-38.107084 0-69.021136 30.882083-69.021136 68.989167s30.914052 68.989167 69.021136 68.989166c38.075115 0 68.989167-30.882083 68.989167-68.989166z" fill="#8B87C1" /><path d="M696.301458 661.135525c38.075115 0 68.989167 30.882083 68.989167 68.989167s-30.914052 68.989167-68.989167 68.989166c-38.107084 0-69.021136-30.882083-69.021136-68.989166s30.914052-68.989167 69.021136-68.989167z" fill="#FF4893" /><path d="M600.394368 498.093472c38.075115 0 68.989167 30.882083 68.989167 68.989167s-30.914052 68.989167-68.989167 68.989166c-38.107084 0-69.021136-30.882083-69.021136-68.989166s30.914052-68.989167 69.021136-68.989167z" fill="#FFB578" /><path d="M512.479535 955.730136c-243.405801 0-441.428366-198.022566-441.428366-441.428366 0-243.386619 198.022566-441.396397 441.428366-441.396397s441.431563 198.009778 441.431564 441.396397c-0.003197 243.402604-198.025763 441.428366-441.431564 441.428366z m0-838.068121c-218.725709 0-396.671724 177.933227-396.671724 396.639755 0 218.725709 177.946015 396.671724 396.671724 396.671724s396.674921-177.946015 396.674922-396.671724c-0.003197-218.706528-177.949212-396.639755-396.674922-396.639755z" fill="#4F46A3" /><path d="M600.394368 658.450126c-50.399176 0-91.402654-40.984296-91.402654-91.36429 0-50.383191 41.003478-91.370685 91.402654-91.370685 50.379994 0 91.367488 40.987493 91.367488 91.370685 0 50.376797-40.987493 91.364291-91.367488 91.36429z m0-137.978333c-25.719085 0-46.646012 20.907746-46.646012 46.610846 0 25.699903 20.926927 46.607649 46.646012 46.607649 25.699903 0 46.610846-20.907746 46.610846-46.607649 0-25.7031-20.910943-46.610846-46.610846-46.610846zM792.208548 658.450126c-50.399176 0-91.402654-40.984296-91.402654-91.36429 0-50.383191 41.003478-91.370685 91.402654-91.370685 50.379994 0 91.367488 40.987493 91.367488 91.370685 0 50.376797-40.987493 91.364291-91.367488 91.36429z m0-137.978333c-25.719085 0-46.646012 20.907746-46.646012 46.610846 0 25.699903 20.926927 46.607649 46.646012 46.607649 25.699903 0 46.610846-20.907746 46.610846-46.607649 0-25.7031-20.910943-46.610846-46.610846-46.610846zM696.301458 821.492179c-50.399176 0-91.402654-40.984296-91.402654-91.36429s41.003478-91.367488 91.402654-91.367488c50.379994 0 91.367488 40.987493 91.367488 91.367488s-40.987493 91.364291-91.367488 91.36429z m0-137.978333c-25.719085 0-46.646012 20.910943-46.646012 46.610846s20.926927 46.607649 46.646012 46.607649c25.699903 0 46.610846-20.907746 46.610846-46.607649s-20.910943-46.610846-46.610846-46.610846zM172.009366 538.534295a22.378321 22.378321 0 0 1-22.378321-22.378321c0-207.127345 168.508757-375.636103 375.636102-375.636103a22.378321 22.378321 0 1 1 0 44.756642c-182.447254 0-330.879461 148.432206-330.87946 330.879461a22.378321 22.378321 0 0 1-22.378321 22.378321zM244.21142 752.503013a22.330367 22.330367 0 0 1-17.81634-8.817059c-26.841198-35.223477-47.039231-74.369554-60.034642-116.344891a22.378321 22.378321 0 0 1 42.755381-13.238375c11.438519 36.949805 29.232481 71.418813 52.879973 102.457544a22.378321 22.378321 0 0 1-17.784372 35.942781z" fill="#4F46A3" /></svg>