<?xml version="1.0" encoding="iso-8859-1"?>

<!DOCTYPE svg PUBLIC "-//W3C//DTD SVG 1.1//EN" "http://www.w3.org/Graphics/SVG/1.1/DTD/svg11.dtd">
<!-- Uploaded to: SVG Repo, www.svgrepo.com, Generator: SVG Repo Mixer Tools -->
<svg version="1.1" id="_x35_" xmlns="http://www.w3.org/2000/svg" xmlns:xlink="http://www.w3.org/1999/xlink" 
	 viewBox="0 0 512 512"  xml:space="preserve">
<g>
	<g>
		<circle style="fill:#F7F9E6;" cx="260.115" cy="255.474" r="215.369"/>
		<path style="fill:#F8FAE7;" d="M98.495,256.006c0-9.327,0.82-18.466,2.382-27.352l-42.011-7.408
			c-1.986,11.293-3.028,22.907-3.028,34.76c0,11.853,1.042,23.466,3.028,34.759l42.011-7.408
			C99.315,274.471,98.495,265.333,98.495,256.006z"/>
		<path style="fill:#F8FAE7;" d="M255.998,98.502V55.846c-24.035,0-47.093,4.261-68.462,12.063l14.59,40.086
			C218.941,101.856,237.086,98.502,255.998,98.502z"/>
		<path style="fill:#F8FAE7;" d="M154.807,135.411l-27.405-32.661c-17.805,14.965-32.979,32.962-44.708,53.198l36.934,21.324
			C128.856,161.349,140.797,147.187,154.807,135.411z"/>
		<path style="fill:#F8FAE7;" d="M357.189,135.411l27.406-32.661c-17.706-14.881-38.011-26.764-60.135-34.841l-14.59,40.086
			C327.279,114.351,343.257,123.702,357.189,135.411z"/>
		<g>
			<path style="fill:#333438;" d="M508.515,214.296c-2.509-14.974-6.232-29.461-11.088-43.22
				c-7.769-22.257-18.453-42.895-31.564-61.591c-3.804-5.504-7.851-10.765-12.059-15.945c-5.342-6.474-10.926-12.625-16.835-18.534
				c-2.59-2.672-5.342-5.181-8.094-7.689c-2.752-2.508-5.503-5.018-8.417-7.365c-3.48-2.913-6.96-5.746-10.603-8.418
				c-1.942-1.537-4.047-2.993-6.07-4.451c-0.323-0.323-0.728-0.566-1.052-0.728c-0.081-0.081-0.081-0.162-0.161-0.162
				c-2.266-1.618-4.532-3.076-6.799-4.533c-3.076-2.023-6.232-4.047-9.469-5.908c-3.156-1.861-6.394-3.723-9.631-5.422
				c-3.318-1.78-6.556-3.481-9.874-5.019c-3.4-1.618-6.718-3.156-10.117-4.613c-2.914-1.214-5.747-2.427-8.66-3.481
				c-1.457-0.647-2.995-1.213-4.532-1.78c-0.891-0.324-1.781-0.647-2.752-0.97c-2.509-0.891-5.018-1.7-7.608-2.509
				c-2.833-0.971-5.666-1.78-8.579-2.59c-2.185-0.647-4.37-1.213-6.556-1.699c-2.023-0.567-3.966-0.971-5.989-1.456
				c-0.081,0-0.243-0.081-0.324-0.081c-2.104-0.486-4.208-0.891-6.394-1.295c-0.728-0.243-1.376-0.324-2.104-0.485
				c-0.728-0.162-1.376-0.243-2.104-0.324c-3.723-0.648-7.365-1.214-11.088-1.699c-0.486-0.162-1.052-0.243-1.618-0.243
				c-3.157-0.486-6.313-0.81-9.47-1.053c-3.804-0.323-7.608-0.566-11.412-0.727c-7.608-0.405-15.216-0.405-22.986,0
				c-3.237,0.161-6.556,0.323-9.793,0.646c-1.619,0.081-3.238,0.243-4.856,0.486c-2.671,0.243-5.26,0.486-7.851,0.891
				c-2.59,0.323-5.18,0.727-7.77,1.132c-0.567,0.081-1.133,0.162-1.7,0.324c-1.942,0.324-3.885,0.647-5.827,1.052
				c-1.78,0.323-3.48,0.647-5.18,1.052c-2.509,0.566-5.018,1.132-7.446,1.78c-0.89,0.162-1.781,0.405-2.671,0.648
				c-2.509,0.647-4.937,1.294-7.365,2.104c-5.261,1.456-10.521,3.156-15.62,5.017c-2.833,1.053-5.666,2.104-8.418,3.238
				c-3.399,1.376-6.798,2.832-10.117,4.371c-2.185,0.971-4.37,2.023-6.556,3.157c-1.861,0.809-3.642,1.699-5.423,2.67
				c-2.832,1.457-5.666,2.995-8.498,4.613c-1.619,0.891-3.238,1.861-4.775,2.833c-2.185,1.213-4.289,2.508-6.313,3.885
				c-2.671,1.618-5.18,3.399-7.77,5.099c-1.538,1.052-3.076,2.184-4.532,3.319c-2.023,1.375-3.966,2.833-5.908,4.37
				c-2.914,2.266-5.828,4.613-8.66,6.96c-2.833,2.347-5.666,4.857-8.337,7.365c-2.509,2.266-4.937,4.613-7.365,7.041
				c-2.266,2.185-4.532,4.533-6.718,6.88c-2.509,2.67-4.937,5.422-7.284,8.174c-2.347,2.671-4.613,5.423-6.799,8.256
				c-0.243,0.162-0.323,0.324-0.405,0.566c-2.266,2.834-4.451,5.747-6.556,8.742c-2.185,2.995-4.29,6.07-6.313,9.146
				c-1.942,2.914-3.723,5.908-5.504,8.822c-0.243,0.324-0.405,0.648-0.567,0.971c-0.486,0.647-0.89,1.376-1.295,2.104
				c-1.376,2.428-2.752,4.856-4.047,7.365c-1.781,3.237-3.399,6.556-5.018,9.955c-1.619,3.399-3.156,6.798-4.613,10.198
				c-0.324,0.647-0.567,1.213-0.81,1.861c-0.89,2.185-1.78,4.371-2.589,6.556c-0.243,0.647-0.567,1.294-0.81,1.942
				c-1.295,3.399-2.509,6.879-3.642,10.36c-1.133,3.318-2.104,6.636-3.076,10.036c-0.162,0.242-0.243,0.485-0.243,0.728
				c-0.971,3.481-1.861,7.041-2.671,10.602c-0.728,2.995-1.376,6.07-1.942,9.146c-0.405,1.538-0.729,3.157-0.971,4.775
				c-0.162,1.134-0.405,2.266-0.567,3.4c-0.324,2.104-0.648,4.209-0.971,6.394c-0.162,1.214-0.324,2.508-0.486,3.885
				c-0.243,2.346-0.567,4.775-0.809,7.203c-0.243,3.318-0.486,6.717-0.648,10.036c-0.162,2.185-0.243,4.371-0.243,6.637
				C0.081,250.474,0,251.849,0,253.226v2.751c0,3.158,0.081,6.313,0.243,9.47c0.081,3.238,0.243,6.394,0.486,9.632
				c0,0.485,0.081,0.971,0.081,1.456c0.324,3.481,0.648,6.961,1.133,10.441c0,0.486,0.081,0.971,0.162,1.375
				c0.405,3.077,0.81,6.232,1.376,9.39c1.295,7.526,2.833,14.81,4.694,22.014c0.891,3.642,1.862,7.202,2.995,10.683
				c1.052,3.562,2.185,7.041,3.399,10.521c0.971,2.914,2.023,5.747,3.157,8.58c0.405,1.052,0.809,2.104,1.295,3.157
				c0.648,1.619,1.295,3.238,2.023,4.856c0.971,2.348,2.023,4.614,3.076,6.799c1.457,3.156,2.914,6.151,4.532,9.226
				c0.323,0.729,0.729,1.457,1.133,2.185c1.457,2.753,2.995,5.504,4.532,8.175c2.59,4.533,5.342,8.984,8.255,13.354
				c0.081,0.081,0.162,0.162,0.162,0.162c0.567,0.971,1.214,1.942,1.861,2.833c0.243,0.405,0.567,0.809,0.81,1.133
				c1.7,2.509,3.399,4.937,5.261,7.365c4.047,5.503,8.418,10.845,12.95,15.944c1.457,1.699,2.914,3.399,4.451,5.018
				c0.729,0.728,1.457,1.538,2.104,2.265c1.619,1.7,3.238,3.32,4.856,4.938c12.059,12.059,25.252,22.823,39.415,32.212
				c3.642,2.509,7.446,4.856,11.25,7.122c25.414,15.054,53.498,25.819,83.121,31.322c28.57,5.422,58.597,5.908,88.948,0.89
				c30.351-5.018,58.516-15.135,83.849-29.461c26.304-14.731,49.451-33.992,68.633-56.412c19.424-22.581,34.802-48.48,45.324-76.483
				c10.359-27.438,16.106-56.979,16.43-87.41C512.077,244.08,511.024,229.188,508.515,214.296z M449.433,328.737
				c-8.498,22.662-20.962,43.544-36.583,61.755c-15.539,18.129-34.235,33.668-55.44,45.647
				c-20.396,11.574-43.219,19.749-67.662,23.795c-24.524,4.047-48.723,3.643-71.79-0.728c-23.957-4.533-46.619-13.193-67.176-25.414
				c-4.209-2.508-8.418-5.18-12.464-8.013c-1.214-0.89-2.509-1.781-3.723-2.671c-3.723-2.671-7.365-5.504-10.927-8.499
				c-1.376-1.133-2.751-2.266-4.128-3.481c-0.162-0.08-0.243-0.242-0.405-0.404c-3.157-2.671-6.232-5.585-9.227-8.661
				c-1.861-1.78-3.723-3.723-5.585-5.665c-2.751-2.995-5.503-6.07-8.093-9.227c-15.054-18.292-27.113-39.415-35.288-62.563
				c-3.885-11.169-6.879-22.823-8.903-34.883c-2.023-12.059-2.914-24.119-2.752-35.935c0.081-2.913,0.162-5.747,0.324-8.58
				c0-1.618,0.081-3.157,0.324-4.694c0.162-2.509,0.405-4.937,0.648-7.446c0.243-2.427,0.567-4.856,0.971-7.284
				c0.324-2.833,0.809-5.584,1.376-8.417c0.486-2.509,0.971-5.018,1.538-7.527c1.214-5.099,2.59-10.117,4.128-15.054
				c0.486-1.619,0.971-3.156,1.538-4.694c0.728-2.348,1.538-4.614,2.428-6.88c8.498-22.58,20.962-43.461,36.583-61.672
				c15.539-18.21,34.235-33.75,55.44-45.649c20.396-11.573,43.22-19.829,67.662-23.876c3.238-0.566,6.475-0.971,9.712-1.375
				c2.913-0.324,5.746-0.567,8.66-0.81c18.21-1.375,36.097-0.243,53.417,2.996c23.957,4.451,46.619,13.192,67.177,25.332
				c2.671,1.619,5.261,3.238,7.851,4.938c2.347,1.537,4.613,3.074,6.879,4.694c2.59,1.861,5.099,3.723,7.527,5.665
				c2.347,1.862,4.694,3.724,6.96,5.666c1.942,1.699,3.885,3.399,5.827,5.179c1.942,1.781,3.885,3.643,5.828,5.585
				c4.775,4.775,9.388,9.713,13.678,14.973c15.054,18.291,27.113,39.335,35.288,62.482c3.885,11.251,6.879,22.905,8.903,34.965
				c2.023,12.059,2.914,24.037,2.752,35.935C462.463,282.767,457.85,306.561,449.433,328.737z"/>
			<path style="fill:#F8FAE7;" d="M403.384,311.445l39.918,15.015c8.121-21.481,12.617-44.543,12.859-68.31l-42.658-0.457
				C413.311,276.396,409.774,294.542,403.384,311.445z"/>
			<path style="fill:#F8FAE7;" d="M333.287,393.25l20.933,37.171c20.511-11.577,38.605-26.613,53.648-44.183l-32.366-27.755
				C363.665,372.308,349.426,384.139,333.287,393.25z"/>
			<path style="fill:#F8FAE7;" d="M377.703,156.086c11.49,13.947,20.679,29.99,26.878,47.636l40.242-14.16
				c-7.878-22.424-19.556-42.813-34.158-60.537L377.703,156.086z"/>
			<path style="fill:#F8FAE7;" d="M226.986,410.821l-7.857,41.93c22.355,4.212,45.799,4.657,69.513,0.737l-6.957-42.087
				C263.025,414.485,244.577,414.135,226.986,410.821z"/>
			<g>
				<path style="fill:#44B25C;" d="M223.355,58.526l-1.07-6.475c-24.491,4.048-47.268,12.275-67.728,23.823l3.22,5.719
					C177.588,70.41,199.642,62.445,223.355,58.526z"/>
				<path style="fill:#D16B77;" d="M157.777,81.592l-3.22-5.719c-21.183,11.957-39.871,27.485-55.406,45.631l4.98,4.27
					C119.172,108.205,137.267,93.17,157.777,81.592z"/>
				<path style="fill:#44B25C;" d="M104.13,125.775l-4.98-4.27c-15.623,18.248-28.053,39.142-36.595,61.737l6.141,2.31
					C76.968,163.674,89.004,143.443,104.13,125.775z"/>
				<path style="fill:#D16B77;" d="M68.696,185.551l-6.141-2.31c-8.388,22.185-13.031,46.003-13.282,70.549l6.563,0.07
					C56.08,230.094,60.575,207.032,68.696,185.551z"/>
				<path style="fill:#44B25C;" d="M444.823,189.562l6.191-2.178c-8.137-23.16-20.198-44.216-35.278-62.522l-5.071,4.163
					C425.267,146.749,436.945,167.137,444.823,189.562z"/>
				<path style="fill:#D16B77;" d="M223.356,58.525c23.713-3.92,47.157-3.476,69.512,0.737l1.209-6.451
					c-23.088-4.35-47.301-4.809-71.792-0.761L223.356,58.525L223.356,58.525z"/>
				<path style="fill:#44B25C;" d="M58.518,288.65c-1.933-11.695-2.799-23.323-2.681-34.789l-6.563-0.07
					c-0.121,11.841,0.773,23.851,2.769,35.929c1.996,12.078,5.014,23.736,8.94,34.909l6.191-2.179
					C63.373,311.632,60.451,300.344,58.518,288.65z"/>
				<path style="fill:#D16B77;" d="M410.665,129.024l5.071-4.163c-15.359-18.644-33.852-34.427-54.516-46.676l-3.34,5.645
					C377.887,95.69,395.793,110.972,410.665,129.024z"/>
				<path style="fill:#44B25C;" d="M357.88,83.83l3.34-5.645c-20.548-12.181-43.239-20.869-67.143-25.374l-1.209,6.451
					C316.013,63.623,337.984,72.036,357.88,83.83z"/>
				<path style="fill:#D16B77;" d="M407.868,386.238l4.978,4.269c15.622-18.248,28.053-39.142,36.596-61.737l-6.14-2.31
					C435.03,348.339,422.995,368.57,407.868,386.238z"/>
				<path style="fill:#44B25C;" d="M443.302,326.461l6.14,2.31c8.388-22.185,13.031-46.003,13.282-70.549l-6.562-0.07
					C455.918,281.918,451.423,304.98,443.302,326.461z"/>
				<path style="fill:#D16B77;" d="M451.014,187.383l-6.191,2.178c3.801,10.818,6.724,22.107,8.657,33.801
					c1.933,11.694,2.799,23.322,2.681,34.788l6.562,0.07c0.121-11.841-0.773-23.851-2.769-35.929
					C457.958,210.214,454.939,198.556,451.014,187.383z"/>
				<path style="fill:#D16B77;" d="M67.174,322.449l-6.191,2.179c8.137,23.16,20.197,44.216,35.278,62.522l5.071-4.163
					C86.73,365.262,75.052,344.874,67.174,322.449z"/>
				<path style="fill:#44B25C;" d="M354.22,430.421l3.22,5.718c21.183-11.957,39.871-27.485,55.406-45.631l-4.978-4.269
					C392.825,403.808,374.731,418.843,354.22,430.421z"/>
				<path style="fill:#D16B77;" d="M288.642,453.487L288.642,453.487l1.07,6.474c24.491-4.048,47.268-12.275,67.728-23.823
					l-3.22-5.718C334.409,441.603,312.355,449.567,288.642,453.487z"/>
				<path style="fill:#44B25C;" d="M101.332,382.987l-5.071,4.163c15.359,18.644,33.852,34.427,54.516,46.676l3.34-5.645
					C134.109,416.321,116.203,401.04,101.332,382.987z"/>
				<path style="fill:#D16B77;" d="M154.117,428.182l-3.34,5.645c20.548,12.181,43.239,20.869,67.143,25.374l1.209-6.45
					C195.983,448.389,174.013,439.977,154.117,428.182z"/>
				<path style="fill:#44B25C;" d="M219.129,452.75l-1.209,6.45c23.088,4.35,47.301,4.809,71.792,0.761l-1.07-6.474
					C264.928,457.407,241.484,456.963,219.129,452.75z"/>
				<path style="fill:#F8FAE7;" d="M134.294,355.925l-32.962,27.062c14.871,18.052,32.777,33.334,52.785,45.195l21.712-36.694
					C160.086,382.155,145.996,370.13,134.294,355.925z"/>
			</g>
			<g>
				<path style="fill:#44B25C;" d="M113.606,306.111l-6.191,2.178c6.2,17.645,15.388,33.689,26.879,47.636l5.071-4.164
					C128.354,338.396,119.547,323.021,113.606,306.111z"/>
				<path style="fill:#44B25C;" d="M114.755,202.876l-6.142-2.31c-6.391,16.903-9.928,35.05-10.12,53.752l6.563,0.07
					C105.24,236.466,108.631,219.075,114.755,202.876z"/>
				<path style="fill:#44B25C;" d="M181.93,124.481l-3.221-5.719c-16.139,9.11-30.378,20.941-42.214,34.766l4.98,4.271
					C152.819,144.55,166.464,133.212,181.93,124.481z"/>
				<path style="fill:#44B25C;" d="M231.383,107.086c17.882-2.956,35.561-2.621,52.419,0.556l1.209-6.451
					c-17.591-3.315-36.039-3.664-54.698-0.58L231.383,107.086L231.383,107.086z"/>
				<path style="fill:#44B25C;" d="M404.919,231.39c1.458,8.819,2.111,17.587,2.022,26.233l6.562,0.07
					c0.092-9.022-0.589-18.172-2.11-27.374c-1.521-9.202-3.821-18.085-6.812-26.597l-6.19,2.178
					C401.257,214.059,403.461,222.571,404.919,231.39z"/>
				<path style="fill:#44B25C;" d="M370.522,354.213l4.979,4.27c11.903-13.903,21.374-29.822,27.882-47.038l-6.141-2.31
					C391.005,325.634,381.929,340.89,370.522,354.213z"/>
				<path style="fill:#44B25C;" d="M179.17,385.843l-3.341,5.645c15.656,9.281,32.944,15.9,51.157,19.332l1.209-6.451
					C210.742,401.081,194.174,394.737,179.17,385.843z"/>
				<path style="fill:#44B25C;" d="M336.167,120.523l-3.341,5.646c15.088,8.944,28.591,20.468,39.805,34.081l5.071-4.163
					C366.001,141.881,351.911,129.856,336.167,120.523z"/>
				<g>
					<path style="fill:#D16B77;" d="M141.476,157.799l-4.98-4.271c-11.903,13.903-21.374,29.822-27.882,47.038l6.142,2.31
						C120.992,186.379,130.069,171.123,141.476,157.799z"/>
					<path style="fill:#D16B77;" d="M231.382,107.086l-1.07-6.475c-18.66,3.084-36.014,9.352-51.603,18.151l3.221,5.719
						C196.869,116.049,213.5,110.042,231.382,107.086z"/>
					<path style="fill:#D16B77;" d="M139.365,351.762l-5.071,4.164c11.702,14.205,25.792,26.23,41.536,35.563l3.341-5.645
						C164.082,376.899,150.58,365.375,139.365,351.762z"/>
					<path style="fill:#D16B77;" d="M332.827,126.169l3.341-5.646c-15.656-9.281-32.944-15.901-51.157-19.332l-1.209,6.451
						C301.255,110.931,317.823,117.275,332.827,126.169z"/>
					<path style="fill:#D16B77;" d="M107.079,280.622c-1.458-8.819-2.111-17.588-2.022-26.234l-6.563-0.07
						c-0.092,9.022,0.589,18.172,2.11,27.374s3.82,18.085,6.811,26.597l6.191-2.178C110.74,297.953,108.537,289.441,107.079,280.622
						z"/>
					<path style="fill:#D16B77;" d="M397.243,309.136l6.141,2.31c6.391-16.903,9.928-35.05,10.119-53.752l-6.562-0.07
						C406.757,275.546,403.367,292.937,397.243,309.136z"/>
					<path style="fill:#D16B77;" d="M398.391,205.901l6.19-2.178c-6.199-17.646-15.388-33.689-26.878-47.636l-5.071,4.163
						C383.644,173.616,392.45,188.99,398.391,205.901z"/>
					<path style="fill:#D16B77;" d="M228.195,404.37l-1.209,6.451c17.591,3.315,36.039,3.664,54.699,0.58l-1.07-6.474
						C262.732,407.882,245.053,407.547,228.195,404.37z"/>
					<path style="fill:#D16B77;" d="M330.067,387.532l3.22,5.718c16.139-9.11,30.378-20.941,42.215-34.767l-4.979-4.27
						C359.179,367.463,345.534,378.801,330.067,387.532z"/>
				</g>
				<path style="fill:#44B25C;" d="M280.615,404.926L280.615,404.926l1.07,6.474c18.66-3.084,36.014-9.352,51.602-18.151
					l-3.22-5.718C315.128,395.964,298.497,401.97,280.615,404.926z"/>
			</g>
			<g>
				<path style="fill:#F8FAE7;" d="M149.164,273.665c-1.046-6.328-1.485-12.615-1.421-18.819l-42.686-0.458
					c-0.089,8.646,0.564,17.415,2.022,26.234c1.458,8.819,3.661,17.331,6.527,25.488l40.269-14.17
					C151.818,286.087,150.211,279.993,149.164,273.665z"/>
				<path style="fill:#F8FAE7;" d="M172.348,324.683l-32.983,27.079c11.215,13.613,24.717,25.137,39.805,34.081l21.718-36.703
					C190.065,342.724,180.393,334.448,172.348,324.683z"/>
				<path style="fill:#F8FAE7;" d="M238.339,149.172l-6.957-42.086c-17.882,2.956-34.513,8.962-49.452,17.395l20.933,37.171
					C213.58,155.603,225.51,151.292,238.339,149.172z"/>
				<path style="fill:#F8FAE7;" d="M173.849,185.56l-32.373-27.761c-11.407,13.323-20.483,28.579-26.72,45.077l39.942,15.024
					C159.171,206.066,165.666,195.118,173.849,185.56z"/>
				<path style="fill:#F8FAE7;" d="M357.3,294.111l39.943,15.025c6.124-16.199,9.514-33.59,9.698-51.512l-42.688-0.457
					C364.121,270.022,361.693,282.491,357.3,294.111z"/>
				<path style="fill:#F8FAE7;" d="M358.121,220.071l40.27-14.17c-5.941-16.91-14.747-32.285-25.759-45.651l-32.983,27.079
					C347.548,196.916,353.859,207.941,358.121,220.071z"/>
				<path style="fill:#F8FAE7;" d="M275.944,149.572c12.521,2.36,24.402,6.918,35.165,13.299l21.718-36.703
					c-15.003-8.894-31.572-15.238-49.025-18.527L275.944,149.572z"/>
				<path style="fill:#F8FAE7;" d="M236.053,362.439l-7.858,41.931c16.858,3.177,34.537,3.512,52.42,0.556l-6.957-42.087
					C260.829,364.96,248.147,364.718,236.053,362.439z"/>
				<path style="fill:#F8FAE7;" d="M309.133,350.359l20.934,37.172c15.467-8.731,29.112-20.069,40.455-33.318l-32.374-27.762
					C330.011,335.956,320.229,344.096,309.133,350.359z"/>
			</g>
			<path style="fill:#F8FAE7;" d="M228.431,278.639l-56.083,46.044c8.045,9.765,17.717,18.041,28.54,24.457l36.948-62.441
				C234.27,284.584,231.082,281.857,228.431,278.639z"/>
			<path style="fill:#F8FAE7;" d="M220.791,261.826c-0.345-2.086-0.489-4.158-0.468-6.202l-72.579-0.778
				c-0.064,6.204,0.375,12.491,1.421,18.819c1.046,6.328,2.654,12.422,4.711,18.276l68.468-24.093
				C221.665,265.919,221.135,263.911,220.791,261.826z"/>
			<path style="fill:#F8FAE7;" d="M228.925,232.79l-55.077-47.23c-8.183,9.558-14.677,20.506-19.152,32.341l67.917,25.547
				C224.088,239.548,226.229,235.94,228.925,232.79z"/>
			<path style="fill:#F8FAE7;" d="M250.179,220.798l-11.84-71.626c-12.829,2.12-24.759,6.431-35.476,12.481l35.624,63.259
				C242.019,222.917,245.951,221.497,250.179,220.798z"/>
			<path style="fill:#F8FAE7;" d="M249.425,291.081l-13.372,71.358c12.094,2.279,24.776,2.521,37.605,0.401l-11.84-71.626
				C257.59,291.912,253.411,291.833,249.425,291.081z"/>
			<path style="fill:#F8FAE7;" d="M289.654,244.163l68.468-24.092c-4.262-12.13-10.573-23.154-18.472-32.742l-56.083,46.044
				C286.169,236.532,288.249,240.166,289.654,244.163z"/>
			<path style="fill:#F8FAE7;" d="M274.16,225.313l36.948-62.441c-10.763-6.381-22.643-10.939-35.165-13.299l-13.372,71.357
				C266.698,221.708,270.613,223.21,274.16,225.313z"/>
			<path style="fill:#F8FAE7;" d="M273.509,287.101l35.624,63.259c11.096-6.263,20.878-14.403,29.015-23.908l-55.077-47.23
				C280.39,282.354,277.166,285.036,273.509,287.101z"/>
			<path style="fill:#F8FAE7;" d="M289.383,268.563l67.917,25.547c4.393-11.62,6.821-24.089,6.953-36.945l-72.579-0.778
				C291.631,260.625,290.831,264.734,289.383,268.563z"/>
			<polygon style="fill:#B76962;" points="255.998,256.006 255.998,256.006 255.998,256.006 			"/>
			<polygon style="fill:#B76962;" points="255.998,256.006 255.998,256.006 255.998,256.006 			"/>
			<rect x="255.998" y="256.006" style="fill:#B76962;" width="0" height="0"/>
			<rect x="255.998" y="256.006" style="fill:#B76962;" width="0" height="0"/>
			<rect x="255.998" y="256.006" style="fill:#B76962;" width="0" height="0"/>
			<polygon style="fill:#B76962;" points="255.998,256.006 255.998,256.006 255.998,256.006 			"/>
			<rect x="255.998" y="256.006" style="fill:#B76962;" width="0" height="0"/>
			<rect x="255.998" y="256.006" style="fill:#B76962;" width="0" height="0"/>
			<polygon style="fill:#B76962;" points="255.998,256.006 255.998,256.006 255.998,256.006 			"/>
			<polygon style="fill:#B76962;" points="255.998,256.006 255.998,256.006 255.998,256.006 			"/>
			<polygon style="fill:#B76962;" points="255.998,256.006 255.998,256.006 255.998,256.006 			"/>
			<polygon style="fill:#B76962;" points="255.998,256.006 255.998,256.006 255.998,256.006 			"/>
			<polygon style="fill:#B76962;" points="255.998,256.006 255.998,256.006 255.998,256.006 			"/>
			<polygon style="fill:#B76962;" points="255.998,256.006 255.998,256.006 255.998,256.006 			"/>
			<polygon style="fill:#B76962;" points="255.998,256.006 255.998,256.006 255.998,256.006 			"/>
			<rect x="255.998" y="256.006" style="fill:#B76962;" width="0" height="0"/>
			<rect x="255.998" y="256.006" style="fill:#B76962;" width="0" height="0"/>
			<polygon style="fill:#B76962;" points="255.998,256.006 255.998,256.006 255.998,256.006 			"/>
			<polygon style="fill:#B76962;" points="255.998,256.006 255.998,256.006 255.998,256.006 			"/>
			<g>
				<path style="fill:#333438;" d="M67.174,322.449c7.878,22.424,19.555,42.814,34.158,60.539l32.962-27.062
					c-11.491-13.948-20.679-29.991-26.879-47.636L67.174,322.449z"/>
				<path style="fill:#333438;" d="M178.709,118.761l-20.932-37.169c-20.51,11.578-38.605,26.613-53.647,44.183l32.365,27.753
					C148.332,139.704,162.57,127.872,178.709,118.761z"/>
				<path style="fill:#333438;" d="M108.613,200.566l-39.917-15.014c-8.121,21.48-12.617,44.542-12.859,68.309l42.656,0.458
					C98.685,235.615,102.222,217.469,108.613,200.566z"/>
				<path style="fill:#333438;" d="M154.117,428.182c19.896,11.795,41.867,20.208,65.012,24.569l7.857-41.93
					c-18.213-3.432-35.501-10.052-51.157-19.332L154.117,428.182z"/>
				<path style="fill:#333438;" d="M147.744,254.845l72.579,0.778c0.043-4.237,0.844-8.345,2.291-12.176L154.697,217.9
					l-39.941-15.024c-6.124,16.199-9.515,33.589-9.698,51.511L147.744,254.845z"/>
				<path style="fill:#333438;" d="M181.93,124.482c-15.467,8.729-29.112,20.068-40.455,33.317l32.373,27.761l55.077,47.23
					c2.682-3.133,5.905-5.815,9.562-7.879l-35.624-63.258L181.93,124.482z"/>
				<path style="fill:#333438;" d="M228.43,278.638c-2.603-3.159-4.683-6.792-6.087-10.79l-68.468,24.092l-40.269,14.17
					c5.941,16.91,14.747,32.285,25.758,45.65l32.983-27.078L228.43,278.638z"/>
				<path style="fill:#333438;" d="M200.888,349.14l-21.718,36.703c15.004,8.894,31.572,15.238,49.025,18.526l7.858-41.93
					l13.372-71.358c-4.126-0.777-8.041-2.279-11.589-4.382L200.888,349.14z"/>
				<path style="fill:#333438;" d="M281.685,411.4l6.957,42.087l0,0c23.713-3.92,45.767-11.884,65.578-23.066l-20.933-37.171
					C317.698,402.049,300.344,408.315,281.685,411.4z"/>
				<path style="fill:#333438;" d="M330.067,387.531l-20.934-37.172L273.509,287.1c-3.532,1.994-7.464,3.414-11.691,4.113
					l11.84,71.627l6.957,42.087l0,0C298.497,401.971,315.128,395.964,330.067,387.531z"/>
				<path style="fill:#333438;" d="M292.952,59.213c-22.29-4.2-45.666-4.643-69.31-0.734l0,0l6.936,41.963
					c18.605-3.076,37-2.727,54.54,0.578L292.952,59.213z"/>
				<path style="fill:#333438;" d="M377.542,155.757l32.866-26.985c-14.828-17.999-32.683-33.237-52.632-45.063l-21.65,36.587
					C351.825,129.602,365.873,141.592,377.542,155.757z"/>
				<path style="fill:#333438;" d="M375.501,358.483l32.366,27.754c15.127-17.668,27.162-37.898,35.434-59.777l-39.918-15.015
					C396.875,328.66,387.404,344.58,375.501,358.483z"/>
				<path style="fill:#333438;" d="M444.468,189.134l-40.125,14.12c2.982,8.487,5.275,17.344,6.792,26.521
					c1.517,9.175,2.196,18.298,2.104,27.295l42.535,0.456c0.116-11.433-0.747-23.026-2.674-34.688
					C451.171,211.177,448.257,199.921,444.468,189.134z"/>
				<path style="fill:#333438;" d="M397.243,309.135L357.3,294.111c-0.008,0.02-0.018,0.038-0.025,0.058l-67.664-25.452
					c-1.47,3.889-3.604,7.486-6.293,10.627l54.871,47.055c-0.015,0.016-0.027,0.036-0.042,0.053l32.374,27.762
					C381.929,340.891,391.005,325.634,397.243,309.135z"/>
				<path style="fill:#333438;" d="M283.677,232.819l55.921-45.911l32.887-27c-11.182-13.574-24.646-25.065-39.69-33.983
					l-21.655,36.597l-36.841,62.26C277.856,226.89,281.034,229.609,283.677,232.819z"/>
				<path style="fill:#333438;" d="M364.131,256.543l42.564,0.456c0.088-8.62-0.563-17.364-2.016-26.157
					c-1.454-8.794-3.651-17.281-6.509-25.416l-40.153,14.13l-68.27,24.021c0.676,1.924,1.204,3.926,1.548,6.007
					c0.344,2.079,0.487,4.144,0.467,6.184L364.131,256.543z"/>
				<path style="fill:#333438;" d="M276.077,149.261l7.835-41.809c-16.809-3.167-34.436-3.501-52.266-0.554l-0.001,0l6.936,41.964
					l11.805,71.417c4.216-0.697,8.383-0.617,12.357,0.132L276.077,149.261z"/>
			</g>
			<g>
				<path style="fill:#44B25C;" d="M118.017,304.559l-5.999,2.111c6.007,17.099,14.912,32.645,26.046,46.16l4.914-4.034
					C132.308,335.843,123.775,320.945,118.017,304.559z"/>
				<path style="fill:#44B25C;" d="M119.131,204.523l-5.952-2.239c-6.193,16.379-9.621,33.964-9.806,52.086l6.36,0.068
					C109.911,237.071,113.196,220.219,119.131,204.523z"/>
				<path style="fill:#44B25C;" d="M184.225,128.556l-3.121-5.542c-15.639,8.828-29.437,20.293-40.907,33.69l4.826,4.138
					C156.015,148.003,169.238,137.016,184.225,128.556z"/>
				<path style="fill:#44B25C;" d="M232.145,111.7c17.328-2.864,34.459-2.54,50.795,0.538l1.171-6.251
					c-17.046-3.212-34.922-3.551-53.004-0.562L232.145,111.7L232.145,111.7z"/>
				<path style="fill:#44B25C;" d="M400.305,232.153c1.413,8.546,2.045,17.042,1.96,25.421l6.359,0.068
					c0.09-8.742-0.57-17.609-2.044-26.526c-1.474-8.917-3.703-17.525-6.601-25.773l-5.999,2.111
					C396.757,215.358,398.893,223.607,400.305,232.153z"/>
				<path style="fill:#44B25C;" d="M366.974,351.171l4.825,4.137c11.534-13.472,20.711-28.898,27.018-45.58l-5.95-2.238
					C386.823,323.477,378.028,338.26,366.974,351.171z"/>
				<path style="fill:#44B25C;" d="M181.55,381.821l-3.237,5.47c15.171,8.993,31.924,15.408,49.572,18.734l1.171-6.251
					C212.144,396.587,196.089,390.439,181.55,381.821z"/>
				<path style="fill:#44B25C;" d="M333.684,124.72l-3.237,5.471c14.62,8.667,27.705,19.834,38.572,33.025l4.914-4.035
					C362.593,145.417,348.94,133.764,333.684,124.72z"/>
				<g>
					<path style="fill:#D16B77;" d="M145.023,160.842l-4.826-4.138c-11.534,13.472-20.711,28.898-27.018,45.58l5.952,2.239
						C125.175,188.536,133.97,173.752,145.023,160.842z"/>
					<path style="fill:#D16B77;" d="M232.145,111.7l-1.037-6.275c-18.082,2.989-34.898,9.062-50.004,17.589l3.121,5.542
						C198.701,120.385,214.817,114.564,232.145,111.7z"/>
					<path style="fill:#D16B77;" d="M142.978,348.795l-4.914,4.034c11.339,13.765,24.993,25.417,40.249,34.461l3.237-5.47
						C166.93,373.154,153.845,361.987,142.978,348.795z"/>
					<path style="fill:#D16B77;" d="M330.447,130.191l3.237-5.471c-15.171-8.993-31.924-15.408-49.572-18.734l-1.171,6.251
						C299.853,115.425,315.908,121.573,330.447,130.191z"/>
					<path style="fill:#D16B77;" d="M111.692,279.86c-1.413-8.546-2.045-17.043-1.959-25.422l-6.36-0.068
						c-0.09,8.742,0.571,17.609,2.045,26.526c1.474,8.917,3.702,17.525,6.6,25.773l5.999-2.111
						C115.24,296.654,113.105,288.405,111.692,279.86z"/>
					<path style="fill:#D16B77;" d="M392.867,307.49l5.95,2.238c6.193-16.379,9.62-33.964,9.806-52.087l-6.359-0.068
						C402.087,274.941,398.802,291.793,392.867,307.49z"/>
					<path style="fill:#D16B77;" d="M393.98,207.453l5.999-2.111c-6.007-17.099-14.911-32.645-26.046-46.16l-4.914,4.035
						C379.689,176.168,388.223,191.066,393.98,207.453z"/>
					<path style="fill:#D16B77;" d="M229.056,399.774l-1.171,6.251c17.046,3.212,34.923,3.551,53.004,0.562l-1.037-6.274
						C262.524,403.177,245.392,402.853,229.056,399.774z"/>
					<path style="fill:#D16B77;" d="M327.772,383.457l3.12,5.541c15.64-8.828,29.437-20.293,40.907-33.69l-4.825-4.137
						C355.983,364.01,342.76,374.997,327.772,383.457z"/>
				</g>
				<path style="fill:#44B25C;" d="M279.852,400.313L279.852,400.313l1.037,6.274c18.082-2.989,34.898-9.062,50.003-17.589
					l-3.12-5.541C313.296,391.628,297.181,397.448,279.852,400.313z"/>
			</g>
			<g>
				<path style="fill:#44B25C;" d="M224.008,62.475l-1.049-6.346c-24.001,3.967-46.323,12.029-66.374,23.347l3.156,5.605
					C179.156,74.122,200.769,66.316,224.008,62.475z"/>
				<path style="fill:#D16B77;" d="M159.742,85.081l-3.156-5.605c-20.759,11.718-39.073,26.936-54.298,44.718l4.88,4.185
					C121.909,111.161,139.641,96.427,159.742,85.081z"/>
				<path style="fill:#44B25C;" d="M107.167,128.379l-4.88-4.185c-15.31,17.883-27.492,38.359-35.863,60.502l6.018,2.264
					C80.548,165.52,92.344,145.694,107.167,128.379z"/>
				<path style="fill:#D16B77;" d="M72.442,186.96l-6.018-2.264c-8.22,21.742-12.77,45.083-13.016,69.138l6.432,0.069
					C60.078,230.612,64.484,208.012,72.442,186.96z"/>
				<path style="fill:#44B25C;" d="M441.047,190.891l6.067-2.135c-7.974-22.696-19.794-43.332-34.573-61.272l-4.969,4.08
					C421.882,148.934,433.326,168.915,441.047,190.891z"/>
				<path style="fill:#D16B77;" d="M224.009,62.475c23.239-3.841,46.214-3.406,68.122,0.722l1.185-6.322
					c-22.626-4.264-46.355-4.713-70.356-0.746L224.009,62.475L224.009,62.475z"/>
				<path style="fill:#44B25C;" d="M62.468,287.997c-1.895-11.461-2.743-22.857-2.628-34.093l-6.432-0.069
					c-0.119,11.605,0.757,23.374,2.714,35.21c1.957,11.837,4.914,23.262,8.761,34.211l6.067-2.135
					C67.226,310.519,64.362,299.457,62.468,287.997z"/>
				<path style="fill:#D16B77;" d="M407.572,131.564l4.969-4.08c-15.052-18.271-33.175-33.738-53.426-45.743l-3.273,5.532
					C375.45,98.897,392.998,113.873,407.572,131.564z"/>
				<path style="fill:#44B25C;" d="M355.842,87.273l3.273-5.532c-20.137-11.938-42.374-20.452-65.8-24.866l-1.185,6.322
					C314.813,67.471,336.344,75.715,355.842,87.273z"/>
				<path style="fill:#D16B77;" d="M404.83,383.633l4.879,4.184c15.31-17.883,27.492-38.359,35.864-60.502l-6.017-2.263
					C431.449,346.492,419.655,366.318,404.83,383.633z"/>
				<path style="fill:#44B25C;" d="M439.556,325.052l6.017,2.263c8.22-21.742,12.77-45.083,13.016-69.138l-6.431-0.069
					C451.92,281.4,447.514,304,439.556,325.052z"/>
				<path style="fill:#D16B77;" d="M447.114,188.756l-6.067,2.135c3.725,10.602,6.589,21.665,8.483,33.125
					c1.894,11.461,2.743,22.856,2.628,34.092l6.431,0.069c0.118-11.605-0.758-23.374-2.714-35.21
					C453.918,211.13,450.96,199.705,447.114,188.756z"/>
				<path style="fill:#D16B77;" d="M70.951,321.121l-6.067,2.135c7.974,22.697,19.793,43.332,34.573,61.272l4.969-4.08
					C90.115,363.077,78.671,343.096,70.951,321.121z"/>
				<path style="fill:#44B25C;" d="M352.255,426.932l3.155,5.603c20.759-11.718,39.074-26.936,54.298-44.718l-4.879-4.184
					C390.089,400.852,372.356,415.586,352.255,426.932z"/>
				<path style="fill:#D16B77;" d="M287.989,449.538L287.989,449.538l1.048,6.345c24.001-3.967,46.323-12.029,66.373-23.347
					l-3.155-5.603C332.841,437.891,311.228,445.696,287.989,449.538z"/>
				<path style="fill:#44B25C;" d="M104.425,380.448l-4.969,4.08c15.052,18.271,33.175,33.738,53.425,45.743l3.273-5.532
					C136.547,413.115,118.999,398.139,104.425,380.448z"/>
				<path style="fill:#D16B77;" d="M156.155,424.738l-3.273,5.532c20.137,11.938,42.374,20.452,65.8,24.866l1.185-6.321
					C197.184,444.541,175.653,436.297,156.155,424.738z"/>
				<path style="fill:#44B25C;" d="M219.866,448.815l-1.185,6.321c22.626,4.263,46.355,4.713,70.356,0.746l-1.049-6.345
					C264.749,453.379,241.774,452.944,219.866,448.815z"/>
				<path style="fill:#F8FAE7;" d="M136.728,353.927l-32.303,26.521c14.574,17.691,32.122,32.667,51.73,44.291l21.278-35.96
					C162.004,379.632,148.196,367.848,136.728,353.927z"/>
			</g>
			<g>
				<path style="fill:#44B25C;" d="M224.648,66.346l-1.028-6.219c-23.521,3.888-45.396,11.788-65.046,22.88l3.093,5.493
					C180.693,77.76,201.874,70.11,224.648,66.346z"/>
				<path style="fill:#D16B77;" d="M161.667,88.499l-3.093-5.493c-20.344,11.484-38.292,26.397-53.212,43.824l4.783,4.101
					C124.59,114.058,141.969,99.618,161.667,88.499z"/>
				<path style="fill:#44B25C;" d="M110.144,130.932l-4.783-4.101c-15.004,17.525-26.942,37.592-35.146,59.292l5.898,2.219
					C84.057,167.33,95.617,147.9,110.144,130.932z"/>
				<path style="fill:#D16B77;" d="M76.114,188.341l-5.898-2.219c-8.056,21.307-12.515,44.181-12.756,67.755l6.303,0.068
					C63.996,231.12,68.314,208.971,76.114,188.341z"/>
				<path style="fill:#44B25C;" d="M437.346,192.193l5.946-2.092c-7.815-22.242-19.398-42.465-33.881-60.046l-4.87,3.998
					C418.564,151.076,429.779,170.656,437.346,192.193z"/>
				<path style="fill:#D16B77;" d="M224.648,66.346c22.774-3.765,45.29-3.338,66.759,0.707l1.161-6.195
					c-22.174-4.178-45.428-4.619-68.949-0.731L224.648,66.346L224.648,66.346z"/>
				<path style="fill:#44B25C;" d="M66.338,287.357c-1.857-11.232-2.688-22.4-2.575-33.411l-6.303-0.068
					c-0.117,11.373,0.742,22.906,2.66,34.506c1.917,11.6,4.816,22.796,8.586,33.526l5.946-2.092
					C71.001,309.429,68.195,298.588,66.338,287.357z"/>
				<path style="fill:#D16B77;" d="M404.54,134.053l4.87-3.998c-14.751-17.906-32.512-33.063-52.357-44.828l-3.208,5.421
					C373.061,102.039,390.258,116.715,404.54,134.053z"/>
				<path style="fill:#44B25C;" d="M353.845,90.648l3.208-5.421c-19.734-11.699-41.527-20.043-64.484-24.369l-1.161,6.195
					C313.637,71.242,334.737,79.321,353.845,90.648z"/>
				<path style="fill:#D16B77;" d="M401.854,381.081l4.781,4.1c15.004-17.525,26.942-37.592,35.146-59.292l-5.897-2.218
					C427.94,344.682,416.382,364.112,401.854,381.081z"/>
				<path style="fill:#44B25C;" d="M435.885,323.671l5.897,2.218c8.056-21.307,12.515-44.181,12.756-67.755l-6.302-0.068
					C448.002,280.892,443.684,303.04,435.885,323.671z"/>
				<path style="fill:#D16B77;" d="M443.292,190.101l-5.946,2.092c3.651,10.39,6.457,21.231,8.314,32.463
					c1.857,11.231,2.688,22.399,2.575,33.41l6.302,0.068c0.116-11.372-0.742-22.906-2.66-34.506
					C449.96,212.028,447.061,200.831,443.292,190.101z"/>
				<path style="fill:#D16B77;" d="M74.651,319.818l-5.946,2.092c7.814,22.243,19.397,42.465,33.881,60.046l4.87-3.998
					C93.433,360.936,82.218,341.355,74.651,319.818z"/>
				<path style="fill:#44B25C;" d="M350.33,423.514l3.092,5.491c20.344-11.484,38.292-26.397,53.212-43.824l-4.781-4.1
					C387.407,397.955,370.029,412.395,350.33,423.514z"/>
				<path style="fill:#D16B77;" d="M287.349,445.667L287.349,445.667l1.027,6.218c23.521-3.888,45.396-11.788,65.046-22.88
					l-3.092-5.491C331.305,434.253,310.124,441.902,287.349,445.667z"/>
				<path style="fill:#44B25C;" d="M107.456,377.959l-4.87,3.998c14.751,17.906,32.512,33.063,52.357,44.828l3.208-5.421
					C138.936,409.973,121.739,395.296,107.456,377.959z"/>
				<path style="fill:#D16B77;" d="M158.151,421.364l-3.208,5.421c19.735,11.699,41.527,20.043,64.484,24.369l1.161-6.195
					C198.36,440.77,177.259,432.691,158.151,421.364z"/>
				<path style="fill:#44B25C;" d="M220.589,444.959l-1.161,6.195c22.174,4.178,45.428,4.619,68.949,0.731l-1.028-6.218
					C264.574,449.432,242.059,449.005,220.589,444.959z"/>
				<path style="fill:#F8FAE7;" d="M139.113,351.969l-31.657,25.99c14.283,17.338,31.479,32.014,50.695,43.405l20.853-35.241
					C163.884,377.16,150.352,365.611,139.113,351.969z"/>
			</g>
			<path style="fill:#44B25C;" d="M264.324,297.451c-4.896,0.809-9.835,0.757-14.679-0.157c-4.836-0.911-9.452-2.657-13.721-5.188
				c-4.24-2.511-7.983-5.719-11.124-9.53c-3.148-3.824-5.575-8.125-7.213-12.79c-0.824-2.342-1.441-4.741-1.836-7.126
				c-0.394-2.385-0.581-4.854-0.555-7.339c0.05-4.943,0.964-9.799,2.714-14.429c1.747-4.62,4.258-8.861,7.467-12.607
				c3.227-3.77,7.038-6.909,11.322-9.325c4.294-2.425,8.953-4.064,13.846-4.872c4.892-0.809,9.83-0.756,14.677,0.159
				c4.83,0.908,9.448,2.652,13.72,5.184c4.243,2.516,7.986,5.723,11.125,9.534c3.147,3.821,5.575,8.124,7.213,12.788
				c0.824,2.345,1.442,4.742,1.836,7.128c0.394,2.385,0.582,4.855,0.556,7.339c-0.05,4.943-0.964,9.798-2.714,14.428
				c-1.746,4.618-4.257,8.859-7.465,12.606c-3.229,3.77-7.038,6.907-11.322,9.327C273.878,295.003,269.218,296.642,264.324,297.451z
				"/>
			<path style="fill:#B76962;" d="M292.661,249.988c-0.405-2.104-0.89-4.128-1.538-6.07c0-0.081-0.081-0.162-0.081-0.242
				c-0.081-0.162-0.162-0.324-0.243-0.486c-1.376-3.723-3.319-7.041-5.828-10.036c-0.161-0.161-0.242-0.323-0.486-0.485
				c0-0.162-0.081-0.243-0.243-0.324c-0.648-0.89-1.457-1.699-2.266-2.347c-1.942-1.942-4.128-3.561-6.394-4.937
				c-0.324-0.161-0.648-0.404-0.971-0.566c0,0-0.081,0-0.162,0c-3.238-1.861-6.718-3.076-10.44-3.804
				c-0.486-0.081-0.891-0.162-1.376-0.162c-3.561-0.567-7.284-0.567-11.007,0c-4.208,0.728-8.175,2.185-11.736,4.128
				c-3.642,2.104-6.879,4.775-9.55,7.932c-2.671,3.075-4.856,6.717-6.313,10.602c-1.457,3.886-2.266,7.932-2.266,12.221
				c0,2.023,0.081,4.128,0.486,6.151c0.324,2.104,0.891,4.128,1.538,6.07c1.376,3.966,3.48,7.608,6.07,10.764
				c0.567,0.648,1.133,1.295,1.781,1.942c2.185,2.428,4.775,4.452,7.608,6.151c3.561,2.104,7.527,3.562,11.655,4.371
				c2.995,0.567,6.151,0.729,9.388,0.486c0.486-0.081,0.971-0.162,1.538-0.162c0.162-0.081,0.405-0.081,0.648-0.162h0.243
				c0.162,0,0.405,0,0.567-0.081c3.723-0.567,7.203-1.78,10.441-3.399c0.405-0.243,0.809-0.405,1.214-0.648
				c3.319-1.942,6.313-4.29,8.822-7.122v-0.081c0.324-0.242,0.486-0.485,0.728-0.728c2.59-2.995,4.613-6.313,5.989-9.955
				c0.162-0.243,0.243-0.405,0.324-0.648c1.457-3.804,2.266-7.85,2.347-11.978v-0.647
				C293.147,253.872,292.985,251.849,292.661,249.988z"/>
			<g>
				<path style="fill:#44B25C;" d="M123.375,302.673l-5.766,2.029c5.774,16.435,14.332,31.377,25.035,44.368l4.723-3.878
					C137.111,332.743,128.909,318.423,123.375,302.673z"/>
				<path style="fill:#44B25C;" d="M124.446,206.522l-5.721-2.152c-5.952,15.743-9.247,32.645-9.425,50.064l6.113,0.065
					C115.584,237.807,118.741,221.609,124.446,206.522z"/>
				<path style="fill:#44B25C;" d="M187.012,133.505l-3-5.327c-15.032,8.485-28.294,19.505-39.318,32.381l4.639,3.978
					C159.898,152.197,172.607,141.637,187.012,133.505z"/>
				<path style="fill:#44B25C;" d="M233.072,117.303c16.655-2.753,33.121-2.441,48.822,0.518l1.126-6.009
					c-16.384-3.087-33.566-3.413-50.946-0.54L233.072,117.303L233.072,117.303z"/>
				<path style="fill:#44B25C;" d="M394.702,233.079c1.358,8.214,1.966,16.381,1.883,24.433l6.112,0.066
					c0.086-8.403-0.548-16.925-1.965-25.496c-1.417-8.571-3.559-16.844-6.344-24.772l-5.766,2.029
					C391.292,216.936,393.344,224.865,394.702,233.079z"/>
				<path style="fill:#44B25C;" d="M362.665,347.475l4.638,3.977c11.086-12.949,19.907-27.776,25.969-43.81l-5.719-2.151
					C381.743,320.857,373.29,335.066,362.665,347.475z"/>
				<path style="fill:#44B25C;" d="M184.441,376.935l-3.111,5.258c14.582,8.644,30.684,14.809,47.647,18.006l1.126-6.008
					C213.847,391.128,198.415,385.219,184.441,376.935z"/>
				<path style="fill:#44B25C;" d="M330.667,129.818l-3.111,5.258c14.053,8.331,26.629,19.064,37.074,31.743l4.723-3.878
					C358.454,149.711,345.331,138.511,330.667,129.818z"/>
				<g>
					<path style="fill:#D16B77;" d="M149.333,164.537l-4.639-3.978c-11.086,12.949-19.907,27.776-25.969,43.81l5.721,2.152
						C130.255,191.156,138.709,176.946,149.333,164.537z"/>
					<path style="fill:#D16B77;" d="M233.071,117.303l-0.997-6.031c-17.379,2.873-33.543,8.71-48.062,16.906l3,5.327
						C200.926,125.651,216.416,120.057,233.071,117.303z"/>
					<path style="fill:#D16B77;" d="M147.367,345.192l-4.723,3.878c10.899,13.23,24.023,24.43,38.686,33.123l3.111-5.258
						C170.388,368.604,157.812,357.871,147.367,345.192z"/>
					<path style="fill:#D16B77;" d="M327.556,135.077l3.111-5.258c-14.581-8.644-30.684-14.81-47.647-18.006l-1.126,6.009
						C298.15,120.884,313.582,126.793,327.556,135.077z"/>
					<path style="fill:#D16B77;" d="M117.296,278.934c-1.358-8.214-1.966-16.381-1.883-24.434l-6.113-0.065
						c-0.086,8.403,0.549,16.925,1.965,25.496c1.417,8.571,3.558,16.844,6.344,24.772l5.766-2.029
						C120.706,295.075,118.654,287.147,117.296,278.934z"/>
					<path style="fill:#D16B77;" d="M387.552,305.491l5.719,2.151c5.952-15.743,9.247-32.645,9.425-50.064l-6.112-0.066
						C396.414,274.205,393.257,290.403,387.552,305.491z"/>
					<path style="fill:#D16B77;" d="M388.622,209.338l5.766-2.029c-5.774-16.435-14.333-31.377-25.034-44.368l-4.723,3.878
						C374.886,179.268,383.088,193.588,388.622,209.338z"/>
					<path style="fill:#D16B77;" d="M230.103,394.191l-1.126,6.008c16.384,3.087,33.566,3.413,50.946,0.54l-0.997-6.03
						C262.27,397.462,245.804,397.15,230.103,394.191z"/>
					<path style="fill:#D16B77;" d="M324.985,378.508l2.999,5.326c15.032-8.485,28.294-19.505,39.318-32.381l-4.638-3.977
						C352.1,359.816,339.391,370.376,324.985,378.508z"/>
				</g>
				<path style="fill:#44B25C;" d="M278.926,394.709L278.926,394.709l0.996,6.03c17.379-2.873,33.543-8.71,48.062-16.906
					l-2.999-5.326C311.071,386.362,295.582,391.956,278.926,394.709z"/>
			</g>
			<g>
				<path style="fill:#44B25C;" d="M126.028,301.74l-5.651,1.988c5.659,16.106,14.046,30.75,24.534,43.48l4.629-3.8
					C139.489,331.208,131.451,317.175,126.028,301.74z"/>
				<path style="fill:#44B25C;" d="M127.077,207.511l-5.606-2.109c-5.833,15.428-9.062,31.992-9.237,49.063l5.991,0.064
					C118.392,238.171,121.486,222.297,127.077,207.511z"/>
				<path style="fill:#44B25C;" d="M188.392,135.955l-2.94-5.22c-14.732,8.316-27.728,19.115-38.532,31.734l4.546,3.898
					C161.82,154.273,174.274,143.924,188.392,135.955z"/>
				<path style="fill:#44B25C;" d="M233.53,120.077c16.322-2.698,32.459-2.392,47.846,0.507l1.103-5.888
					c-16.056-3.026-32.895-3.344-49.927-0.529L233.53,120.077L233.53,120.077z"/>
				<path style="fill:#44B25C;" d="M391.928,233.538c1.331,8.049,1.926,16.053,1.846,23.945l5.989,0.064
					c0.084-8.235-0.537-16.587-1.926-24.986c-1.388-8.399-3.487-16.507-6.217-24.277l-5.65,1.989
					C388.586,217.718,390.597,225.488,391.928,233.538z"/>
				<path style="fill:#44B25C;" d="M360.532,345.646l4.545,3.897c10.865-12.69,19.509-27.221,25.45-42.934l-5.605-2.108
					C379.228,319.56,370.944,333.485,360.532,345.646z"/>
				<path style="fill:#44B25C;" d="M185.872,374.517l-3.049,5.153c14.29,8.471,30.07,14.513,46.694,17.646l1.104-5.888
					C214.69,388.425,199.567,382.635,185.872,374.517z"/>
				<path style="fill:#44B25C;" d="M329.174,132.342l-3.049,5.153c13.772,8.164,26.096,18.682,36.333,31.108l4.629-3.8
					C356.405,151.837,343.544,140.861,329.174,132.342z"/>
				<g>
					<path style="fill:#D16B77;" d="M151.466,166.366l-4.546-3.898c-10.864,12.69-19.509,27.221-25.45,42.934l5.606,2.109
						C132.77,192.453,141.054,178.527,151.466,166.366z"/>
					<path style="fill:#D16B77;" d="M233.53,120.077l-0.977-5.91c-17.032,2.815-32.872,8.536-47.101,16.568l2.94,5.22
						C202.028,128.258,217.207,122.775,233.53,120.077z"/>
					<path style="fill:#D16B77;" d="M149.539,343.409l-4.629,3.8c10.681,12.966,23.542,23.942,37.912,32.461l3.049-5.153
						C172.101,366.353,159.776,355.834,149.539,343.409z"/>
					<path style="fill:#D16B77;" d="M326.124,137.495l3.049-5.153c-14.29-8.471-30.07-14.513-46.694-17.646l-1.103,5.888
						C297.307,123.587,312.43,129.377,326.124,137.495z"/>
					<path style="fill:#D16B77;" d="M120.07,278.475c-1.331-8.05-1.927-16.054-1.846-23.946l-5.991-0.064
						c-0.084,8.235,0.538,16.587,1.926,24.986c1.388,8.399,3.487,16.507,6.217,24.277l5.651-1.988
						C123.412,294.294,121.401,286.524,120.07,278.475z"/>
					<path style="fill:#D16B77;" d="M384.921,304.501l5.605,2.108c5.833-15.428,9.062-31.992,9.236-49.063l-5.989-0.064
						C393.606,273.841,390.512,289.715,384.921,304.501z"/>
					<path style="fill:#D16B77;" d="M385.969,210.272l5.65-1.989c-5.659-16.106-14.046-30.75-24.534-43.48l-4.629,3.8
						C372.508,180.803,380.546,194.837,385.969,210.272z"/>
					<path style="fill:#D16B77;" d="M230.621,391.428l-1.104,5.888c16.056,3.026,32.895,3.345,49.927,0.529l-0.977-5.909
						C262.145,394.633,246.008,394.327,230.621,391.428z"/>
					<path style="fill:#D16B77;" d="M323.606,376.058l2.939,5.219c14.732-8.316,27.728-19.115,38.532-31.734l-4.545-3.897
						C350.178,357.74,337.723,368.089,323.606,376.058z"/>
				</g>
				<path style="fill:#44B25C;" d="M278.468,391.935L278.468,391.935l0.977,5.91c17.032-2.815,32.872-8.536,47.101-16.568
					l-2.939-5.219C309.97,383.755,294.79,389.237,278.468,391.935z"/>
			</g>
			<g>
				<path style="fill:#44B25C;" d="M128.627,300.825l-5.538,1.949c5.545,15.784,13.765,30.135,24.043,42.611l4.536-3.724
					C141.819,329.704,133.942,315.951,128.627,300.825z"/>
				<path style="fill:#44B25C;" d="M129.655,208.481l-5.494-2.067c-5.717,15.12-8.881,31.352-9.052,48.081l5.871,0.063
					C121.144,238.527,124.177,222.971,129.655,208.481z"/>
				<path style="fill:#44B25C;" d="M189.744,138.356l-2.881-5.116c-14.437,8.149-27.173,18.732-37.761,31.099l4.455,3.82
					C163.703,156.308,175.909,146.166,189.744,138.356z"/>
				<path style="fill:#44B25C;" d="M233.979,122.796c15.996-2.644,31.81-2.344,46.889,0.497l1.081-5.771
					c-15.735-2.965-32.237-3.278-48.928-0.519L233.979,122.796L233.979,122.796z"/>
				<path style="fill:#44B25C;" d="M389.209,233.987c1.304,7.888,1.888,15.732,1.809,23.466l5.87,0.063
					c0.083-8.07-0.527-16.255-1.887-24.486c-1.361-8.231-3.418-16.177-6.093-23.792l-5.537,1.949
					C385.934,218.484,387.905,226.098,389.209,233.987z"/>
				<path style="fill:#44B25C;" d="M358.441,343.853l4.454,3.819c10.647-12.436,19.119-26.676,24.941-42.076l-5.493-2.066
					C376.763,318.289,368.645,331.935,358.441,343.853z"/>
				<path style="fill:#44B25C;" d="M187.275,372.146l-2.988,5.05c14.004,8.302,29.469,14.223,45.76,17.293l1.081-5.77
					C215.516,385.777,200.696,380.102,187.275,372.146z"/>
				<path style="fill:#44B25C;" d="M327.71,134.816l-2.988,5.05c13.496,8.001,25.575,18.309,35.606,30.486l4.536-3.724
					C354.396,153.92,341.793,143.164,327.71,134.816z"/>
				<g>
					<path style="fill:#D16B77;" d="M153.557,168.159l-4.455-3.82c-10.647,12.436-19.119,26.676-24.941,42.076l5.494,2.067
						C135.234,193.724,143.353,180.077,153.557,168.159z"/>
					<path style="fill:#D16B77;" d="M233.979,122.796l-0.957-5.792c-16.691,2.759-32.215,8.365-46.159,16.236l2.881,5.116
						C203.107,130.813,217.983,125.44,233.979,122.796z"/>
					<path style="fill:#D16B77;" d="M151.669,341.66l-4.536,3.724c10.468,12.707,23.071,23.463,37.154,31.811l2.988-5.05
						C173.779,364.146,161.7,353.837,151.669,341.66z"/>
					<path style="fill:#D16B77;" d="M324.722,139.865l2.988-5.05c-14.004-8.302-29.469-14.223-45.76-17.293l-1.081,5.771
						C296.481,126.235,311.301,131.91,324.722,139.865z"/>
					<path style="fill:#D16B77;" d="M122.789,278.026c-1.304-7.889-1.888-15.733-1.809-23.467l-5.871-0.063
						c-0.083,8.07,0.527,16.255,1.888,24.487c1.361,8.231,3.417,16.177,6.093,23.791l5.538-1.949
						C126.064,293.528,124.093,285.914,122.789,278.026z"/>
					<path style="fill:#D16B77;" d="M382.343,303.531l5.493,2.066c5.716-15.12,8.881-31.352,9.052-48.081l-5.87-0.063
						C390.854,273.485,387.821,289.041,382.343,303.531z"/>
					<path style="fill:#D16B77;" d="M383.37,211.186l5.537-1.949c-5.546-15.784-13.765-30.135-24.043-42.611l-4.536,3.724
						C370.178,182.307,378.055,196.06,383.37,211.186z"/>
					<path style="fill:#D16B77;" d="M231.128,388.719l-1.081,5.77c15.735,2.965,32.237,3.278,48.928,0.519l-0.957-5.791
						C262.022,391.861,246.208,391.561,231.128,388.719z"/>
					<path style="fill:#D16B77;" d="M322.253,373.657l2.88,5.115c14.437-8.149,27.174-18.732,37.761-31.099l-4.454-3.819
						C348.294,355.705,336.089,365.847,322.253,373.657z"/>
				</g>
				<path style="fill:#44B25C;" d="M278.018,389.216L278.018,389.216l0.957,5.791c16.691-2.759,32.215-8.365,46.159-16.236
					l-2.88-5.115C308.89,381.2,294.014,386.572,278.018,389.216z"/>
			</g>
			<g>
				<path style="fill:#44B25C;" d="M131.175,299.929l-5.427,1.91c5.435,15.468,13.49,29.532,23.562,41.759l4.445-3.65
					C144.103,328.23,136.383,314.753,131.175,299.929z"/>
				<path style="fill:#44B25C;" d="M132.182,209.432l-5.384-2.025c-5.603,14.818-8.703,30.725-8.871,47.12l5.754,0.062
					C123.841,238.877,126.813,223.632,132.182,209.432z"/>
				<path style="fill:#44B25C;" d="M191.069,140.709l-2.824-5.014c-14.148,7.986-26.63,18.358-37.006,30.477l4.366,3.744
					C165.549,158.302,177.511,148.362,191.069,140.709z"/>
				<path style="fill:#44B25C;" d="M234.42,125.46c15.676-2.591,31.173-2.298,45.951,0.487l1.06-5.655
					c-15.421-2.906-31.592-3.212-47.949-0.508L234.42,125.46L234.42,125.46z"/>
				<path style="fill:#44B25C;" d="M386.545,234.427c1.278,7.731,1.85,15.417,1.773,22.996l5.752,0.062
					c0.081-7.909-0.516-15.93-1.849-23.997c-1.333-8.067-3.349-15.854-5.971-23.316l-5.427,1.91
					C383.335,219.234,385.267,226.696,386.545,234.427z"/>
				<path style="fill:#44B25C;" d="M356.392,342.096l4.365,3.743c10.434-12.188,18.737-26.143,24.442-41.234l-5.383-2.025
					C374.348,317.043,366.392,330.417,356.392,342.096z"/>
				<path style="fill:#44B25C;" d="M188.649,369.824l-2.928,4.949c13.724,8.136,28.88,13.939,44.845,16.947l1.06-5.655
					C216.326,383.182,201.802,377.62,188.649,369.824z"/>
				<path style="fill:#44B25C;" d="M326.276,137.239l-2.928,4.949c13.226,7.841,25.063,17.943,34.894,29.876l4.446-3.65
					C352.428,155.962,340.077,145.421,326.276,137.239z"/>
				<g>
					<path style="fill:#D16B77;" d="M155.606,169.916l-4.366-3.744c-10.434,12.188-18.736,26.143-24.442,41.234l5.384,2.025
						C137.65,194.969,145.606,181.596,155.606,169.916z"/>
					<path style="fill:#D16B77;" d="M234.42,125.46l-0.938-5.676c-16.357,2.704-31.571,8.198-45.236,15.912l2.824,5.014
						C204.165,133.317,218.744,128.051,234.42,125.46z"/>
					<path style="fill:#D16B77;" d="M153.755,339.947l-4.445,3.65c10.258,12.452,22.61,22.994,36.411,31.175l2.928-4.949
						C175.423,361.983,163.586,351.881,153.755,339.947z"/>
					<path style="fill:#D16B77;" d="M323.348,142.188l2.928-4.949c-13.724-8.136-28.879-13.939-44.845-16.947l-1.06,5.655
						C295.671,128.83,310.195,134.391,323.348,142.188z"/>
					<path style="fill:#D16B77;" d="M125.453,277.585c-1.278-7.731-1.85-15.418-1.772-22.997l-5.754-0.062
						c-0.081,7.909,0.516,15.93,1.85,23.997s3.349,15.853,5.971,23.315l5.427-1.91C128.662,292.778,126.731,285.316,125.453,277.585
						z"/>
					<path style="fill:#D16B77;" d="M379.816,302.58l5.383,2.025c5.602-14.818,8.703-30.725,8.871-47.12l-5.752-0.062
						C388.156,273.135,385.185,288.38,379.816,302.58z"/>
					<path style="fill:#D16B77;" d="M380.822,212.083l5.427-1.91c-5.435-15.468-13.49-29.532-23.562-41.758l-4.446,3.65
						C367.895,183.781,375.614,197.259,380.822,212.083z"/>
					<path style="fill:#D16B77;" d="M231.625,386.065l-1.06,5.655c15.42,2.906,31.592,3.212,47.95,0.508l-0.938-5.675
						C261.901,389.144,246.403,388.85,231.625,386.065z"/>
					<path style="fill:#D16B77;" d="M320.928,371.304l2.823,5.012c14.148-7.986,26.63-18.358,37.006-30.477l-4.365-3.743
						C346.449,353.711,334.487,363.65,320.928,371.304z"/>
				</g>
				<path style="fill:#44B25C;" d="M277.578,386.552L277.578,386.552l0.938,5.676c16.357-2.704,31.57-8.198,45.235-15.912
					l-2.823-5.012C307.833,378.696,293.254,383.961,277.578,386.552z"/>
			</g>
			<g>
				<path style="fill:#44B25C;" d="M133.671,299.05l-5.319,1.871c5.326,15.159,13.22,28.941,23.091,40.923l4.356-3.577
					C146.34,326.786,138.775,313.578,133.671,299.05z"/>
				<path style="fill:#44B25C;" d="M134.658,210.363l-5.277-1.985c-5.49,14.521-8.529,30.111-8.694,46.177l5.639,0.06
					C126.484,239.219,129.397,224.279,134.658,210.363z"/>
				<path style="fill:#44B25C;" d="M192.368,143.015l-2.767-4.913c-13.865,7.827-26.097,17.99-36.266,29.868l4.279,3.669
					C167.358,160.256,179.08,150.515,192.368,143.015z"/>
				<path style="fill:#44B25C;" d="M234.852,128.071c15.362-2.539,30.55-2.252,45.032,0.477l1.038-5.542
					c-15.112-2.848-30.96-3.148-46.991-0.498L234.852,128.071L234.852,128.071z"/>
				<path style="fill:#44B25C;" d="M383.934,234.859c1.252,7.576,1.813,15.109,1.737,22.537l5.637,0.06
					c0.079-7.751-0.506-15.611-1.812-23.517c-1.307-7.905-3.283-15.537-5.852-22.849l-5.318,1.872
					C380.788,219.969,382.682,227.283,383.934,234.859z"/>
				<path style="fill:#44B25C;" d="M354.384,340.375l4.278,3.668c10.226-11.944,18.362-25.62,23.953-40.409l-5.275-1.984
					C371.981,315.822,364.184,328.928,354.384,340.375z"/>
				<path style="fill:#44B25C;" d="M189.996,367.547l-2.87,4.85c13.45,7.973,28.302,13.66,43.948,16.608l1.039-5.542
					C217.119,380.638,202.886,375.188,189.996,367.547z"/>
				<path style="fill:#44B25C;" d="M324.87,139.615l-2.87,4.85c12.962,7.684,24.562,17.584,34.196,29.278l4.357-3.577
					C350.5,157.963,338.396,147.633,324.87,139.615z"/>
				<g>
					<path style="fill:#D16B77;" d="M157.613,171.638l-4.279-3.669c-10.225,11.944-18.362,25.62-23.953,40.409l5.277,1.985
						C140.017,196.19,147.814,183.084,157.613,171.638z"/>
					<path style="fill:#D16B77;" d="M234.851,128.071l-0.919-5.563c-16.03,2.65-30.939,8.034-44.331,15.593l2.767,4.913
						C205.201,135.771,219.489,130.611,234.851,128.071z"/>
					<path style="fill:#D16B77;" d="M155.8,338.269l-4.356,3.577c10.053,12.203,22.158,22.534,35.683,30.552l2.87-4.85
						C177.035,359.863,165.435,349.963,155.8,338.269z"/>
					<path style="fill:#D16B77;" d="M322,144.465l2.87-4.85c-13.449-7.973-28.302-13.66-43.948-16.608l-1.038,5.542
						C294.878,131.374,309.111,136.824,322,144.465z"/>
					<path style="fill:#D16B77;" d="M128.064,277.154c-1.252-7.576-1.813-15.11-1.737-22.538l-5.639-0.06
						c-0.079,7.751,0.506,15.611,1.813,23.517c1.307,7.905,3.282,15.536,5.852,22.849l5.319-1.871
						C131.209,292.042,129.316,284.73,128.064,277.154z"/>
					<path style="fill:#D16B77;" d="M377.34,301.649l5.275,1.984c5.49-14.521,8.529-30.111,8.693-46.177l-5.637-0.06
						C385.513,272.793,382.601,287.733,377.34,301.649z"/>
					<path style="fill:#D16B77;" d="M378.326,212.961l5.318-1.872c-5.326-15.159-13.22-28.941-23.091-40.923l-4.357,3.577
						C365.657,185.226,373.222,198.434,378.326,212.961z"/>
					<path style="fill:#D16B77;" d="M232.113,383.464l-1.039,5.542c15.112,2.848,30.961,3.148,46.991,0.498l-0.919-5.562
						C261.784,386.481,246.595,386.193,232.113,383.464z"/>
					<path style="fill:#D16B77;" d="M319.63,368.998l2.766,4.912c13.865-7.826,26.098-17.991,36.266-29.867l-4.278-3.668
						C344.64,351.757,332.917,361.497,319.63,368.998z"/>
				</g>
				<path style="fill:#44B25C;" d="M277.146,383.941L277.146,383.941l0.919,5.562c16.03-2.65,30.939-8.034,44.331-15.593
					l-2.766-4.912C306.796,376.242,292.509,381.402,277.146,383.941z"/>
			</g>
			<g>
				<path style="fill:#44B25C;" d="M136.118,298.19l-5.212,1.834c5.219,14.856,12.955,28.363,22.629,40.105l4.269-3.505
					C148.534,325.37,141.12,312.426,136.118,298.19z"/>
				<path style="fill:#44B25C;" d="M137.085,211.276l-5.171-1.945c-5.381,14.231-8.359,29.509-8.52,45.254l5.526,0.059
					C129.075,239.555,131.929,224.914,137.085,211.276z"/>
				<path style="fill:#44B25C;" d="M193.64,145.275l-2.712-4.815c-13.588,7.67-25.575,17.631-35.54,29.27l4.193,3.596
					C169.131,162.171,180.619,152.625,193.64,145.275z"/>
				<path style="fill:#44B25C;" d="M235.274,130.63c15.055-2.489,29.939-2.207,44.132,0.468l1.018-5.431
					c-14.81-2.791-30.341-3.085-46.051-0.488L235.274,130.63L235.274,130.63z"/>
				<path style="fill:#44B25C;" d="M381.375,235.282c1.227,7.424,1.777,14.807,1.702,22.086l5.524,0.059
					c0.078-7.595-0.496-15.299-1.776-23.046c-1.281-7.747-3.217-15.226-5.735-22.392l-5.212,1.834
					C378.293,220.69,380.148,227.857,381.375,235.282z"/>
				<path style="fill:#44B25C;" d="M352.417,338.687l4.192,3.595c10.021-11.705,17.995-25.108,23.474-39.601l-5.17-1.945
					C369.661,314.626,362.02,327.47,352.417,338.687z"/>
				<path style="fill:#44B25C;" d="M191.316,365.316l-2.813,4.753c13.181,7.813,27.736,13.387,43.069,16.276l1.018-5.431
					C217.896,378.146,203.948,372.805,191.316,365.316z"/>
				<path style="fill:#44B25C;" d="M323.493,141.942l-2.813,4.753c12.703,7.53,24.071,17.232,33.512,28.693l4.269-3.505
					C348.61,159.924,336.748,149.8,323.493,141.942z"/>
				<g>
					<path style="fill:#D16B77;" d="M159.581,173.325l-4.193-3.596c-10.021,11.705-17.995,25.107-23.474,39.601l5.171,1.945
						C142.336,197.386,149.978,184.542,159.581,173.325z"/>
					<path style="fill:#D16B77;" d="M235.274,130.63l-0.901-5.452c-15.71,2.597-30.32,7.873-43.444,15.282l2.712,4.815
						C206.217,138.175,220.219,133.118,235.274,130.63z"/>
					<path style="fill:#D16B77;" d="M157.804,336.623l-4.269,3.505c9.852,11.959,21.714,22.083,34.969,29.941l2.813-4.753
						C178.614,357.786,167.246,348.084,157.804,336.623z"/>
					<path style="fill:#D16B77;" d="M320.68,146.695l2.813-4.753c-13.181-7.813-27.736-13.387-43.069-16.276l-1.018,5.431
						C294.1,133.867,308.049,139.207,320.68,146.695z"/>
					<path style="fill:#D16B77;" d="M130.622,276.731c-1.227-7.425-1.777-14.808-1.702-22.087l-5.526-0.059
						c-0.078,7.596,0.496,15.299,1.777,23.046c1.281,7.747,3.216,15.226,5.734,22.392l5.212-1.834
						C133.705,291.322,131.85,284.155,130.622,276.731z"/>
					<path style="fill:#D16B77;" d="M374.913,300.736l5.17,1.945c5.38-14.231,8.358-29.509,8.519-45.254l-5.524-0.059
						C382.923,272.457,380.069,287.098,374.913,300.736z"/>
					<path style="fill:#D16B77;" d="M375.879,213.822l5.212-1.834c-5.219-14.856-12.955-28.363-22.629-40.105l-4.269,3.505
						C363.464,186.641,370.878,199.585,375.879,213.822z"/>
					<path style="fill:#D16B77;" d="M232.591,380.915l-1.018,5.431c14.81,2.791,30.341,3.085,46.051,0.488l-0.901-5.451
						C261.668,383.871,246.783,383.589,232.591,380.915z"/>
					<path style="fill:#D16B77;" d="M318.357,366.738l2.711,4.814c13.588-7.67,25.576-17.631,35.541-29.27l-4.192-3.595
						C342.867,349.842,331.379,359.388,318.357,366.738z"/>
				</g>
				<path style="fill:#44B25C;" d="M276.723,381.383L276.723,381.383l0.901,5.451c15.71-2.597,30.32-7.873,43.444-15.281
					l-2.711-4.814C305.78,373.837,291.779,378.894,276.723,381.383z"/>
			</g>
		</g>
	</g>
	<path style="opacity:0.1;fill:#F7F9E6;" d="M428.875,67.317c-2.752-2.508-5.503-5.018-8.417-7.365
		c-3.48-2.913-6.96-5.746-10.603-8.418c-1.942-1.537-4.047-2.993-6.07-4.451c-0.323-0.323-0.728-0.566-1.052-0.728
		c-0.081-0.081-0.081-0.162-0.161-0.162c-2.266-1.618-4.532-3.076-6.799-4.533c-3.076-2.023-6.232-4.047-9.469-5.908
		c-3.156-1.861-6.394-3.723-9.631-5.422c-3.318-1.78-6.556-3.481-9.874-5.019c-3.4-1.618-6.718-3.156-10.117-4.613
		c-2.914-1.214-5.747-2.427-8.66-3.481c-1.457-0.647-2.995-1.213-4.532-1.78c-0.891-0.324-1.781-0.647-2.752-0.97
		c-2.509-0.891-5.018-1.7-7.608-2.509c-2.833-0.971-5.666-1.78-8.579-2.59c-2.185-0.647-4.37-1.213-6.556-1.699
		c-2.023-0.567-3.966-0.971-5.989-1.456c-0.081,0-0.243-0.081-0.324-0.081c-2.104-0.486-4.208-0.891-6.394-1.295
		c-1.376-0.324-2.832-0.566-4.209-0.809c-3.723-0.648-7.365-1.214-11.088-1.699c-0.567-0.081-1.133-0.162-1.699-0.162
		c-3.076-0.486-6.232-0.81-9.389-1.134c-3.804-0.323-7.608-0.566-11.412-0.727c-3.804-0.162-7.608-0.243-11.493-0.243
		c-3.885,0-7.689,0.081-11.493,0.243c-3.237,0.161-6.556,0.323-9.793,0.646c-1.619,0.081-3.238,0.243-4.856,0.486
		c-2.671,0.243-5.26,0.486-7.851,0.891c-3.238,0.404-6.394,0.889-9.47,1.456c-1.942,0.324-3.885,0.647-5.827,1.052
		c-1.78,0.323-3.48,0.647-5.18,1.052c-2.509,0.566-5.018,1.132-7.446,1.78c-0.89,0.162-1.781,0.405-2.671,0.648
		c-2.509,0.647-4.937,1.294-7.365,2.104c-5.261,1.456-10.521,3.156-15.62,5.017c-2.833,1.053-5.666,2.104-8.418,3.238
		c-3.399,1.376-6.798,2.832-10.117,4.371c-2.185,0.971-4.37,2.023-6.556,3.157c-1.861,0.809-3.642,1.699-5.423,2.67
		c-2.832,1.457-5.666,2.995-8.498,4.613c-1.619,0.891-3.238,1.861-4.775,2.833c-2.185,1.213-4.289,2.508-6.313,3.885
		c-2.671,1.618-5.18,3.399-7.77,5.099c-1.538,1.052-3.076,2.184-4.532,3.319c-2.023,1.375-3.966,2.833-5.908,4.37
		c-2.914,2.266-5.828,4.613-8.66,6.96c-2.833,2.347-5.666,4.857-8.337,7.365c-2.509,2.266-4.937,4.613-7.365,7.041
		c-2.266,2.185-4.532,4.533-6.718,6.88c-2.509,2.67-4.937,5.422-7.284,8.174c-2.347,2.671-4.613,5.423-6.799,8.256
		c-0.243,0.162-0.323,0.324-0.405,0.566c-2.266,2.834-4.451,5.747-6.556,8.742c-2.185,2.995-4.29,6.07-6.313,9.146
		c-1.942,2.914-3.723,5.908-5.504,8.822c-0.243,0.324-0.405,0.648-0.567,0.971c-0.486,0.647-0.89,1.376-1.295,2.104
		c-1.376,2.428-2.752,4.856-4.047,7.365c-1.781,3.237-3.399,6.556-5.018,9.955c-1.619,3.399-3.156,6.798-4.613,10.198
		c-0.324,0.647-0.567,1.213-0.81,1.861c-0.89,2.185-1.78,4.371-2.589,6.556c-0.243,0.647-0.567,1.294-0.81,1.942
		c-1.295,3.399-2.509,6.879-3.642,10.36c-1.133,3.318-2.104,6.636-3.076,10.036c-0.162,0.242-0.243,0.485-0.243,0.728
		c-0.971,3.481-1.861,7.041-2.671,10.602c-0.728,2.995-1.376,6.07-1.942,9.146c-0.405,1.538-0.729,3.157-0.971,4.775
		c-0.162,1.134-0.405,2.266-0.567,3.4c-0.324,2.104-0.648,4.209-0.971,6.394c-0.162,1.214-0.324,2.508-0.486,3.885
		c-0.243,2.346-0.567,4.775-0.809,7.203c-0.243,3.318-0.486,6.717-0.648,10.036c-0.162,2.185-0.243,4.371-0.243,6.637
		C0.081,250.96,0,252.902,0,254.764v1.213c0,3.158,0.081,6.313,0.243,9.47c0.081,3.238,0.243,6.394,0.486,9.632
		c0,0.485,0.081,0.971,0.081,1.456c0.324,3.481,0.648,6.961,1.133,10.441c0,0.486,0.081,0.971,0.162,1.375
		c0.405,3.077,0.81,6.232,1.376,9.39c0.081,0.889,0.243,1.78,0.405,2.669c1.133,6.556,2.509,13.031,4.289,19.345
		c0.891,3.642,1.862,7.202,2.995,10.683c1.052,3.562,2.185,7.041,3.399,10.521c0.971,2.914,2.023,5.747,3.157,8.58
		c0.405,1.052,0.809,2.104,1.295,3.157c0.648,1.619,1.295,3.238,2.023,4.856c0.971,2.348,2.023,4.614,3.076,6.799
		c1.457,3.156,2.914,6.151,4.532,9.226c0.323,0.729,0.729,1.457,1.133,2.185c1.457,2.753,2.995,5.504,4.532,8.175
		c2.59,4.533,5.342,8.984,8.255,13.354c0.081,0.081,0.162,0.162,0.162,0.162c0.567,0.971,1.214,1.942,1.861,2.833
		c0.243,0.405,0.567,0.809,0.81,1.133c1.7,2.509,3.399,4.937,5.261,7.365c4.047,5.503,8.418,10.845,12.95,15.944
		c1.457,1.699,2.914,3.399,4.451,5.018c0.729,0.728,1.457,1.538,2.104,2.265c1.619,1.7,3.238,3.32,4.856,4.938l3.642-3.562
		l27.356-27.437l3.885-3.885l2.914-2.914l36.259-36.259l0.243-0.243l2.995-2.995l0.324-0.324l1.78-1.699l2.023-2.104l0.243-0.243
		l1.78-1.78l0.162-0.162l68.309-68.309l3.804-3.804l0.891-0.891l49.856-49.855h0.081l0.405-0.486l63.777-63.776l1.861-1.862
		l1.862-1.861l0.243-0.243l1.619-1.618l6.232-6.232l1.78-1.7l0.324-0.404l3.076-3.076l1.133-1.133l3.4-3.4
		c-1.943-1.942-3.966-3.885-6.07-5.827c-0.405-0.324-0.81-0.728-1.214-1.051c-0.89-0.81-1.781-1.538-2.671-2.266
		c-0.081-0.081-0.081-0.081-0.161-0.162v-0.081h0.081v-0.081c0.405,0.324,0.81,0.648,1.133,1.052
		c1.781,1.457,3.48,2.914,5.099,4.532c1.295,1.214,2.59,2.428,3.885,3.724l24.443-24.443l2.832-2.752l1.619-1.699l1.133-1.134h0.081
		l1.619-1.699l2.995-2.914l8.498-8.498l23.552-23.633l2.833-2.752C434.379,72.335,431.627,69.826,428.875,67.317z M309.82,107.947
		c-3.723-1.376-7.446-2.59-11.331-3.562c-2.186-0.647-4.452-1.213-6.718-1.699c-0.405-0.162-0.81-0.243-1.214-0.324
		c-1.619-0.323-3.157-0.647-4.775-0.97c-0.243-0.081-0.567-0.081-0.81-0.162c-2.347-0.405-4.775-0.81-7.122-1.214
		c-2.428-0.324-4.856-0.566-7.284-0.809c-4.775-0.486-9.631-0.729-14.568-0.729V63.756h0.243v34.56
		c4.694,0,9.389,0.243,14.002,0.648c1.214,0.081,2.428,0.243,3.642,0.405c1.376,0.081,2.752,0.242,4.128,0.485
		c2.347,0.323,4.775,0.728,7.122,1.133c8.498,1.618,16.754,3.885,24.766,6.798L309.82,107.947z M255.998,128.909h0.243v84.901
		h-0.243V128.909z"/>
</g>
</svg>