<?xml version="1.0" encoding="iso-8859-1"?>

<!DOCTYPE svg PUBLIC "-//W3C//DTD SVG 1.1//EN" "http://www.w3.org/Graphics/SVG/1.1/DTD/svg11.dtd">
<!-- Uploaded to: SVG Repo, www.svgrepo.com, Generator: SVG Repo Mixer Tools -->
<svg height="800px" width="800px" version="1.1" id="_x36_" xmlns="http://www.w3.org/2000/svg" xmlns:xlink="http://www.w3.org/1999/xlink" 
	 viewBox="0 0 512 512"  xml:space="preserve">
<g>
	<g>
		<path style="fill:#333333;" d="M394.998,319.378c0,47.088-17.291,90.193-46.037,123.696
			c-28.746,33.432-69.019,57.19-114.764,65.582c-0.146,0-0.365,0.071-0.511,0.071c-0.948,0.214-1.824,0.356-2.845,0.498
			c-0.656,0.142-1.313,0.214-1.97,0.356c-1.168,0.142-2.335,0.355-3.575,0.498h-0.219c-1.167,0.214-2.335,0.355-3.502,0.498
			c-0.803,0.071-1.605,0.142-2.408,0.214c-0.875,0.142-1.605,0.214-2.408,0.285c-0.949,0.071-1.97,0.142-2.845,0.214
			c-0.511,0.071-1.021,0.142-1.532,0.142c-1.094,0.071-2.262,0.142-3.429,0.214c-1.021,0.07-2.043,0.142-3.137,0.142
			c-1.167,0.071-2.407,0.142-3.648,0.142c-1.532,0-3.137,0.071-4.669,0.071c-3.21,0-6.493-0.071-9.631-0.285
			c-0.292,0.071-0.511,0-0.803,0c-3.283-0.142-6.566-0.355-9.776-0.711c-2.554-0.285-5.034-0.57-7.588-0.925
			c-1.313-0.142-2.553-0.355-3.866-0.569c-3.064-0.427-6.201-0.996-9.266-1.707c-2.335-0.427-4.669-0.926-7.004-1.493
			c-1.094-0.285-2.189-0.57-3.283-0.854c-2.554-0.64-5.107-1.351-7.588-2.134c-2.48-0.782-4.961-1.565-7.441-2.417
			c-1.094-0.356-2.189-0.783-3.283-1.21c-2.553-0.925-5.034-1.921-7.515-2.917c-2.48-0.996-4.961-2.063-7.368-3.201
			c-3.429-1.636-6.785-3.272-10.068-5.05c-1.97-0.997-3.867-2.063-5.764-3.201c-1.021-0.497-1.97-1.067-2.918-1.707
			c-1.313-0.782-2.626-1.565-3.867-2.347c-0.073,0-0.073,0-0.073-0.071c-5.691-3.556-11.162-7.398-16.343-11.524
			c-1.605-1.209-3.21-2.488-4.742-3.841c-2.772-2.205-5.472-4.624-8.099-7.113c-2.189-1.992-4.304-4.054-6.347-6.188
			c-2.553-2.632-5.034-5.264-7.442-8.038c-1.313-1.494-2.627-3.059-3.94-4.624c-1.313-1.565-2.553-3.201-3.794-4.765
			c-1.241-1.637-2.481-3.273-3.648-4.909c-1.241-1.636-2.408-3.273-3.502-4.98c-0.292-0.426-0.583-0.781-0.802-1.209l-0.073-0.071
			c-0.802-1.28-1.678-2.561-2.48-3.841C10.652,390.793,0,356.294,0,319.378c0-67.432,35.531-126.756,89.301-161.112
			c2.991-1.921,6.056-3.77,9.193-5.548c14.664-8.323,30.57-14.795,47.277-19.206c4.669-1.28,9.411-2.347,14.227-3.272
			c3.356-0.569,6.785-1.137,10.214-1.565c8.901-1.28,18.021-1.849,27.287-1.849c8.317,0,16.561,0.498,24.587,1.493
			c0.949,0.071,1.896,0.214,2.772,0.356c0.438,0.071,0.876,0.071,1.313,0.142c0.146,0,0.219,0.071,0.365,0.071
			c1.313,0.142,2.627,0.356,3.94,0.569c1.24,0.214,2.481,0.426,3.721,0.64c3.502,0.641,6.858,1.352,10.287,2.206
			c14.3,3.414,27.943,8.322,40.857,14.582c0.584,0.284,1.167,0.569,1.751,0.853c4.596,2.277,9.047,4.696,13.425,7.327
			c0.073,0.071,0.219,0.142,0.292,0.214c35.677,21.411,63.839,53.491,79.744,91.759c1.095,2.489,2.043,4.98,2.992,7.54
			c0.292,0.926,0.656,1.778,0.948,2.704c0.511,1.351,0.949,2.702,1.386,4.054C391.788,279.615,394.998,299.176,394.998,319.378z"/>
		<path style="opacity:0.03;fill:#FFFFFF;" d="M234.197,508.656c-0.146,0-0.365,0.071-0.511,0.071
			c-0.948,0.214-1.824,0.356-2.845,0.498c-0.656,0.142-1.313,0.214-1.97,0.356c-1.168,0.142-2.335,0.355-3.575,0.498h-0.219
			c-1.167,0.214-2.335,0.355-3.502,0.498c-0.803,0.071-1.605,0.142-2.408,0.214c-0.875,0.142-1.605,0.214-2.408,0.285
			c-0.949,0.071-1.97,0.142-2.845,0.214c-0.511,0.071-1.021,0.142-1.532,0.142c-1.094,0.071-2.262,0.142-3.429,0.214
			c-1.021,0.07-2.043,0.142-3.137,0.142c-1.167,0.071-2.407,0.142-3.648,0.142c-1.532,0-3.137,0.071-4.669,0.071
			c-3.21,0-6.493-0.071-9.631-0.285c-0.292,0.071-0.511,0-0.803,0c-3.283-0.142-6.566-0.355-9.776-0.711
			c-2.554-0.285-5.034-0.57-7.588-0.925c-1.313-0.142-2.553-0.355-3.866-0.569c-3.064-0.427-6.201-0.996-9.266-1.707
			c-2.335-0.427-4.669-0.926-7.004-1.493c-1.094-0.285-2.189-0.57-3.283-0.854c-2.554-0.64-5.107-1.351-7.588-2.134
			c-2.48-0.782-4.961-1.565-7.441-2.417c-1.094-0.356-2.189-0.783-3.283-1.21c-2.553-0.925-5.034-1.921-7.515-2.917
			c-2.48-0.996-4.961-2.063-7.368-3.201c-3.429-1.636-6.785-3.272-10.068-5.05c-1.97-0.997-3.867-2.063-5.764-3.201
			c-1.021-0.497-1.97-1.067-2.918-1.707c-1.313-0.782-2.626-1.565-3.867-2.347c-0.073,0-0.073,0-0.073-0.071
			c-5.691-3.556-11.162-7.398-16.343-11.524c-1.605-1.209-3.21-2.488-4.742-3.841c-2.772-2.205-5.472-4.624-8.099-7.113
			c-2.189-1.992-4.304-4.054-6.347-6.188c-2.553-2.632-5.034-5.264-7.442-8.038c-1.313-1.494-2.627-3.059-3.94-4.624
			c-1.313-1.565-2.553-3.201-3.794-4.765c-1.241-1.637-2.481-3.273-3.648-4.909c-1.241-1.636-2.408-3.273-3.502-4.98
			c-0.292-0.426-0.583-0.781-0.802-1.209l-0.073-0.071c-0.802-1.28-1.678-2.561-2.48-3.841C10.652,390.793,0,356.294,0,319.378
			c0-67.432,35.531-126.756,89.301-161.112c2.991-1.921,6.056-3.77,9.193-5.548c14.664-8.323,30.57-14.795,47.277-19.206
			c4.669-1.28,9.411-2.347,14.227-3.272c3.356-0.569,6.785-1.137,10.214-1.565c8.901-1.28,18.021-1.849,27.287-1.849
			c8.317,0,16.561,0.498,24.587,1.493c0.949,0.071,1.896,0.214,2.772,0.356c0.438,0.071,0.876,0.071,1.313,0.142
			c0.146,0,0.219,0.071,0.365,0.071c1.313,0.142,2.627,0.356,3.94,0.569c1.24,0.214,2.481,0.426,3.721,0.64
			c-0.292,0.071-0.511,0.142-0.802,0.142c-22.034,4.126-42.754,11.879-61.504,22.478c-5.618,3.13-11.09,6.616-16.343,10.314
			c-0.073,0.071-0.219,0.141-0.292,0.213c-12.184,8.536-23.347,18.494-33.269,29.591c-30.278,33.858-48.663,78.102-48.663,126.542
			c0,17.64,2.408,34.64,7.004,50.858C100.026,440.655,159.779,495,234.197,508.656z"/>
		<path style="fill:#333333;" d="M244.484,100.508v44.457c0,13.088-11.819,23.758-26.338,23.758h-46.037
			c-6.201,0-11.965-1.992-16.561-5.264c-0.073-0.071-0.219-0.142-0.292-0.214c-5.764-4.41-9.485-10.953-9.485-18.28v-44.457
			c0-1.636,0.146-3.201,0.511-4.695c0,0-0.073,0,0-0.071c2.48-10.812,13.206-18.992,25.827-18.992h45.161
			c0.73,0,1.532,0,2.262,0.071C233.395,77.462,244.484,87.846,244.484,100.508z"/>
		<path style="fill:#4B4C51;" d="M242.66,94.39c-2.991,10.101-13.278,17.641-25.389,17.641h-46.11
			c-11.527,0-21.377-6.829-24.879-16.218c0,0-0.073,0,0-0.071c-0.219-0.426-0.365-0.925-0.511-1.352
			c2.991-10.1,13.279-17.64,25.389-17.64h46.11c0.73,0,1.532,0,2.262,0.071C230.622,77.675,239.888,84.93,242.66,94.39z"/>
		<path style="opacity:0.5;fill:#040000;" d="M214.745,92.329c0,2.854-2.558,5.432-6.634,7.228
			c-3.655,1.588-8.463,2.555-13.747,2.555c-5.763,0-10.964-1.151-14.674-2.969c-3.542-1.772-5.707-4.189-5.707-6.813
			c0-3.453,3.739-6.491,9.39-8.217c3.176-0.99,6.944-1.565,10.992-1.565c7.169,0,13.466,1.772,17.121,4.488
			C213.536,88.554,214.745,90.373,214.745,92.329z"/>
		<g>
			<path style="fill:#FFFFFF;" d="M270.968,17.427c-0.146,0.071-0.365,0.142-0.51,0.214c-29.84,10.03-51.947,32.293-62.526,59.109
				c-0.949,2.419-1.824,4.837-2.554,7.327c-0.219,0.712-0.438,1.351-0.656,2.063c-0.949,3.272-1.678,6.615-2.262,9.958
				c-2.408,1.281-5.691,2.063-9.193,2.063c-3.867,0-7.369-0.924-9.85-2.418c0.657-4.054,1.459-8.038,2.481-11.95
				c0-0.142,0.073-0.213,0.146-0.355c0.511-2.276,1.167-4.481,1.896-6.687c10.506-31.938,34.583-59.252,67.998-73.335
				c2.919-1.281,5.91-2.418,8.974-3.414L270.968,17.427z"/>
		</g>
	</g>
	<path style="opacity:0.1;fill:#040000;" d="M394.998,319.378c0,47.088-17.291,90.193-46.037,123.696
		c-28.746,33.432-69.019,57.19-114.764,65.582c-0.146,0-0.365,0.071-0.511,0.071c-0.948,0.214-1.824,0.356-2.845,0.498
		c-0.656,0.142-1.313,0.214-1.97,0.356c-1.168,0.142-2.335,0.355-3.575,0.498h-0.219c-1.167,0.214-2.335,0.355-3.502,0.498
		c-0.803,0.071-1.605,0.142-2.408,0.214c-0.875,0.142-1.605,0.214-2.408,0.285c-0.949,0.071-1.97,0.142-2.845,0.214
		c-0.511,0.071-1.021,0.142-1.532,0.142c-1.094,0.071-2.262,0.142-3.429,0.214c-1.021,0.07-2.043,0.142-3.137,0.142
		c-1.167,0.071-2.407,0.142-3.648,0.142c-1.532,0-3.137,0.071-4.669,0.071c-3.21,0-6.493-0.071-9.631-0.285
		c-0.292,0.071-0.511,0-0.803,0c-3.283-0.142-6.566-0.355-9.776-0.711c-2.554-0.285-5.034-0.57-7.588-0.925
		c-1.313-0.142-2.553-0.355-3.866-0.569c-3.064-0.427-6.201-0.996-9.266-1.707c-2.335-0.427-4.669-0.926-7.004-1.493
		c-1.094-0.285-2.189-0.57-3.283-0.854c-2.554-0.64-5.107-1.351-7.588-2.134c-2.48-0.782-4.961-1.565-7.441-2.417
		c-1.094-0.356-2.189-0.783-3.283-1.21c-2.553-0.925-5.034-1.921-7.515-2.917c-2.48-0.996-4.961-2.063-7.368-3.201
		c-3.429-1.636-6.785-3.272-10.068-5.05c-1.97-0.997-3.867-2.063-5.764-3.201c-1.021-0.497-1.97-1.067-2.918-1.707
		c-1.313-0.782-2.626-1.565-3.867-2.347c-0.073,0-0.073,0-0.073-0.071c-5.691-3.556-11.162-7.398-16.343-11.524
		c-1.605-1.209-3.21-2.488-4.742-3.841c-2.772-2.276-5.472-4.695-8.099-7.113c-2.189-1.992-4.304-4.054-6.347-6.188
		c-2.553-2.632-5.034-5.264-7.442-8.038c-1.313-1.494-2.627-3.059-3.94-4.624c-1.313-1.565-2.553-3.201-3.794-4.765
		c-1.241-1.637-2.481-3.273-3.648-4.909c-1.241-1.636-2.408-3.273-3.502-4.98c-0.292-0.426-0.583-0.781-0.802-1.209l-0.073-0.071
		c-0.802-1.28-1.678-2.561-2.48-3.841l51.144-49.863l220.481-214.957c35.677,21.411,63.839,53.491,79.744,91.759
		c1.095,2.489,2.043,4.98,2.992,7.54c0.292,0.926,0.656,1.778,0.948,2.704c0.511,1.351,0.949,2.702,1.386,4.054
		C391.788,279.615,394.998,299.176,394.998,319.378z"/>
</g>
</svg>