<?xml version="1.0" encoding="iso-8859-1"?>

<!DOCTYPE svg PUBLIC "-//W3C//DTD SVG 1.1//EN" "http://www.w3.org/Graphics/SVG/1.1/DTD/svg11.dtd">
<!-- Uploaded to: SVG Repo, www.svgrepo.com, Generator: SVG Repo Mixer Tools -->
<svg version="1.1" id="_x34_" xmlns="http://www.w3.org/2000/svg" xmlns:xlink="http://www.w3.org/1999/xlink" 
	 viewBox="0 0 512 512"  xml:space="preserve">
<g>
	<g>
		<g>
			<rect x="216.414" style="fill:#C8773F;" width="74.79" height="74.79"/>
			<rect x="83.542" style="fill:#C8773F;" width="74.878" height="74.79"/>
			<rect x="349.198" style="fill:#C8773F;" width="74.878" height="74.79"/>
			<rect x="83.542" y="63.651" style="fill:#C8773F;" width="340.534" height="309.064"/>
		</g>
		<polygon style="fill:#A75723;" points="507.619,283.691 507.619,511.685 0,511.685 0,225.343 58.966,225.343 58.966,283.691 
			83.542,283.691 83.542,275.645 104.229,275.645 104.229,217.387 179.108,217.387 179.108,275.645 216.326,275.645 
			216.326,217.387 291.205,217.387 291.205,275.645 328.511,275.645 328.511,217.387 403.39,217.387 403.39,275.645 
			424.076,275.645 424.076,283.691 448.653,283.691 448.653,225.343 507.53,225.343 507.53,275.91 		"/>
	</g>
	<g>
		<rect x="83.542" y="33.771" style="opacity:0.1;fill:#FFFFFF;" width="74.878" height="6.365"/>
		<rect x="216.414" y="33.771" style="opacity:0.1;fill:#FFFFFF;" width="74.79" height="6.365"/>
		<rect x="349.198" y="33.771" style="opacity:0.1;fill:#FFFFFF;" width="74.878" height="6.365"/>
		<rect x="250.627" style="opacity:0.1;fill:#FFFFFF;" width="6.365" height="36.952"/>
		<rect x="83.542" y="33.771" style="opacity:0.1;fill:#FFFFFF;" width="74.878" height="6.365"/>
		<rect x="216.414" y="33.771" style="opacity:0.1;fill:#FFFFFF;" width="74.79" height="6.365"/>
		<rect x="349.198" y="33.771" style="opacity:0.1;fill:#FFFFFF;" width="74.878" height="6.365"/>
		<rect x="83.542" y="92.648" style="opacity:0.1;fill:#FFFFFF;" width="340.534" height="6.453"/>
		<rect x="122.383" y="36.935" style="opacity:0.1;fill:#FFFFFF;" width="6.372" height="58.943"/>
		<rect x="207.574" y="63.651" style="opacity:0.1;fill:#FFFFFF;" width="6.365" height="32.269"/>
		<rect x="292.796" y="63.651" style="opacity:0.1;fill:#FFFFFF;" width="6.453" height="32.269"/>
		<rect x="378.067" y="36.935" style="opacity:0.1;fill:#FFFFFF;" width="6.372" height="58.943"/>
		<rect x="83.542" y="92.648" style="opacity:0.1;fill:#FFFFFF;" width="340.534" height="6.453"/>
		<rect x="83.542" y="151.613" style="opacity:0.1;fill:#FFFFFF;" width="340.534" height="6.367"/>
		<rect x="165.395" y="95.878" style="opacity:0.1;fill:#FFFFFF;" width="6.372" height="58.943"/>
		<rect x="250.623" y="95.878" style="opacity:0.1;fill:#FFFFFF;" width="6.372" height="58.943"/>
		<rect x="335.851" y="95.878" style="opacity:0.1;fill:#FFFFFF;" width="6.372" height="58.943"/>
		<rect x="83.542" y="151.613" style="opacity:0.1;fill:#FFFFFF;" width="340.534" height="6.367"/>
		<rect x="83.542" y="210.58" style="opacity:0.1;fill:#FFFFFF;" width="340.534" height="6.365"/>
		<rect x="122.383" y="154.82" style="opacity:0.1;fill:#FFFFFF;" width="6.372" height="58.943"/>
		<rect x="207.611" y="154.82" style="opacity:0.1;fill:#FFFFFF;" width="6.372" height="58.943"/>
		<rect x="292.839" y="154.82" style="opacity:0.1;fill:#FFFFFF;" width="6.372" height="58.943"/>
		<rect x="378.067" y="154.82" style="opacity:0.1;fill:#FFFFFF;" width="6.372" height="58.943"/>
		<rect x="83.542" y="210.58" style="opacity:0.1;fill:#FFFFFF;" width="340.534" height="6.365"/>
		<rect y="269.545" style="opacity:0.1;fill:#FFFFFF;" width="58.966" height="6.365"/>
		<rect x="83.542" y="269.545" style="opacity:0.1;fill:#FFFFFF;" width="340.534" height="6.365"/>
		<rect x="448.623" y="269.52" style="opacity:0.1;fill:#FFFFFF;" width="58.943" height="6.372"/>
		<rect x="165.395" y="213.763" style="opacity:0.1;fill:#FFFFFF;" width="6.372" height="58.943"/>
		<rect x="250.623" y="213.763" style="opacity:0.1;fill:#FFFFFF;" width="6.372" height="58.943"/>
		<rect x="335.851" y="213.763" style="opacity:0.1;fill:#FFFFFF;" width="6.372" height="58.943"/>
		<rect y="269.545" style="opacity:0.1;fill:#FFFFFF;" width="58.966" height="6.365"/>
		<rect x="83.542" y="269.545" style="opacity:0.1;fill:#FFFFFF;" width="340.534" height="6.365"/>
		<rect x="448.623" y="269.52" style="opacity:0.1;fill:#FFFFFF;" width="58.943" height="6.372"/>
		<rect y="328.422" style="opacity:0.1;fill:#FFFFFF;" width="507.619" height="6.453"/>
		<rect x="37.155" y="272.706" style="opacity:0.1;fill:#FFFFFF;" width="6.372" height="58.943"/>
		<rect x="122.383" y="272.706" style="opacity:0.1;fill:#FFFFFF;" width="6.372" height="58.943"/>
		<rect x="207.611" y="272.706" style="opacity:0.1;fill:#FFFFFF;" width="6.372" height="58.943"/>
		<rect x="292.839" y="272.706" style="opacity:0.1;fill:#FFFFFF;" width="6.372" height="58.943"/>
		<rect x="378.067" y="272.706" style="opacity:0.1;fill:#FFFFFF;" width="6.372" height="58.943"/>
		<rect x="463.295" y="272.706" style="opacity:0.1;fill:#FFFFFF;" width="6.372" height="58.943"/>
		<rect y="328.422" style="opacity:0.1;fill:#FFFFFF;" width="507.619" height="6.453"/>
		<rect y="387.389" style="opacity:0.1;fill:#FFFFFF;" width="507.619" height="6.365"/>
		<rect x="80.167" y="331.649" style="opacity:0.1;fill:#FFFFFF;" width="6.372" height="58.943"/>
		<rect x="165.395" y="331.649" style="opacity:0.1;fill:#FFFFFF;" width="6.372" height="58.943"/>
		<rect x="250.623" y="331.649" style="opacity:0.1;fill:#FFFFFF;" width="6.372" height="58.943"/>
		<rect x="335.851" y="331.649" style="opacity:0.1;fill:#FFFFFF;" width="6.372" height="58.943"/>
		<rect x="421.079" y="331.649" style="opacity:0.1;fill:#FFFFFF;" width="6.372" height="58.943"/>
		<rect y="387.389" style="opacity:0.1;fill:#FFFFFF;" width="507.619" height="6.365"/>
		<rect y="446.354" style="opacity:0.1;fill:#FFFFFF;" width="507.619" height="6.365"/>
		<rect x="37.155" y="390.592" style="opacity:0.1;fill:#FFFFFF;" width="6.372" height="58.943"/>
		<rect x="122.383" y="390.592" style="opacity:0.1;fill:#FFFFFF;" width="6.372" height="58.943"/>
		<rect x="207.611" y="390.592" style="opacity:0.1;fill:#FFFFFF;" width="6.372" height="58.943"/>
		<rect x="292.839" y="390.592" style="opacity:0.1;fill:#FFFFFF;" width="6.372" height="58.943"/>
		<rect x="378.067" y="390.592" style="opacity:0.1;fill:#FFFFFF;" width="6.372" height="58.943"/>
		<rect x="463.295" y="390.592" style="opacity:0.1;fill:#FFFFFF;" width="6.372" height="58.943"/>
		<rect y="446.354" style="opacity:0.1;fill:#FFFFFF;" width="507.619" height="6.365"/>
		<rect x="0.005" y="505.291" style="opacity:0.1;fill:#FFFFFF;" width="507.609" height="6.372"/>
		<rect x="80.167" y="449.534" style="opacity:0.1;fill:#FFFFFF;" width="6.372" height="58.943"/>
		<rect x="165.395" y="449.534" style="opacity:0.1;fill:#FFFFFF;" width="6.372" height="58.943"/>
		<rect x="250.623" y="449.534" style="opacity:0.1;fill:#FFFFFF;" width="6.372" height="58.943"/>
		<rect x="335.851" y="449.534" style="opacity:0.1;fill:#FFFFFF;" width="6.372" height="58.943"/>
		<rect x="421.079" y="449.534" style="opacity:0.1;fill:#FFFFFF;" width="6.372" height="58.943"/>
		<rect x="0.005" y="505.291" style="opacity:0.1;fill:#FFFFFF;" width="507.609" height="6.372"/>
		<rect x="37.155" y="508.477" style="opacity:0.1;fill:#FFFFFF;" width="6.372" height="3.186"/>
		<rect x="122.383" y="508.477" style="opacity:0.1;fill:#FFFFFF;" width="6.372" height="3.186"/>
		<rect x="207.611" y="508.477" style="opacity:0.1;fill:#FFFFFF;" width="6.372" height="3.186"/>
		<rect x="292.839" y="508.477" style="opacity:0.1;fill:#FFFFFF;" width="6.372" height="3.186"/>
		<rect x="378.067" y="508.477" style="opacity:0.1;fill:#FFFFFF;" width="6.372" height="3.186"/>
		<rect x="463.295" y="508.477" style="opacity:0.1;fill:#FFFFFF;" width="6.372" height="3.186"/>
	</g>
	<g>
		<path style="fill:#4E4D4D;" d="M260.714,323.536h-13.395c-32.946,0-59.901,26.956-59.901,59.901V512h133.197V383.437
			C320.615,350.491,293.659,323.536,260.714,323.536z"/>
		<g>
			<polygon style="fill:#4E4D4D;" points="145.649,92.562 145.649,122.299 166.999,122.299 166.999,149.912 145.649,149.912 
				145.649,179.648 211.495,179.648 211.495,92.562 			"/>
			<polygon style="fill:#4E4D4D;" points="296.124,92.562 296.124,122.299 317.473,122.299 317.473,149.912 296.124,149.912 
				296.124,179.648 361.969,179.648 361.969,92.562 			"/>
		</g>
	</g>
</g>
</svg>